<svg xmlns="http://www.w3.org/2000/svg" viewBox="0 -0.5 35 43" shape-rendering="crispEdges">
<metadata>Made with Pixels to Svg https://codepen.io/shshaw/pen/XbxvNj</metadata>
<path stroke="#1d1d1b" d="M0 0h35M0 1h1M34 1h1M0 2h1M34 2h1M0 3h1M34 3h1M0 4h1M34 4h1M0 5h1M34 5h1M0 6h1M34 6h1M0 7h1M34 7h1M0 8h1M34 8h1M0 9h1M34 9h1M0 10h1M34 10h1M0 11h1M34 11h1M0 12h1M34 12h1M0 13h1M34 13h1M0 14h1M34 14h1M0 15h1M34 15h1M0 16h1M34 16h1M0 17h1M34 17h1M0 18h1M34 18h1M0 19h1M34 19h1M0 20h1M34 20h1M0 21h1M34 21h1M0 22h1M34 22h1M0 23h1M34 23h1M0 24h1M34 24h1M0 25h1M34 25h1M0 26h1M34 26h1M0 27h1M34 27h1M0 28h1M34 28h1M0 29h1M34 29h1M0 30h1M34 30h1M0 31h1M34 31h1M0 32h1M34 32h1M0 33h1M34 33h1M0 34h1M34 34h1M0 35h1M34 35h1M0 36h1M34 36h1M0 37h1M34 37h1M0 38h1M34 38h1M0 39h1M34 39h1M0 40h1M34 40h1M0 41h1M34 41h1M0 42h35" />
<path stroke="#f0f0f0" d="M1 1h1M1 2h1M1 3h1M1 4h1M1 5h1M1 6h1M1 7h1M1 8h1M1 9h1M1 10h1M1 11h1M1 12h1M1 13h1M1 14h1M1 15h1M1 16h1M1 17h1M1 18h1M1 19h1M1 20h1M1 21h1M1 22h1M1 23h1M1 24h1M1 25h1M1 26h1M1 27h1M1 28h1M1 29h1M1 30h1M1 31h1M1 32h1M1 33h1M1 34h1M1 35h1M1 36h1M1 37h1M1 38h1M1 39h1M1 40h1" />
<path stroke="#ffffff" d="M2 1h32M33 2h1M23 3h2M33 3h1M4 4h4M13 4h3M17 4h2M22 4h1M25 4h1M33 4h1M15 5h1M33 5h1M10 6h1M15 6h1M33 6h1M10 7h1M15 7h1M33 7h1M15 8h1M20 8h1M33 8h1M11 9h1M15 9h1M21 9h1M33 9h1M11 10h1M15 10h1M21 10h1M33 10h1M15 11h1M21 11h1M33 11h1M15 12h1M21 12h1M30 12h1M33 12h1M11 13h1M15 13h1M21 13h1M30 13h1M33 13h1M10 14h1M15 14h1M20 14h1M30 14h1M33 14h1M15 15h1M30 15h1M33 15h1M10 16h1M15 16h1M30 16h1M33 16h1M15 17h1M21 17h1M27 17h1M30 17h1M33 17h1M21 18h2M30 18h1M33 18h1M4 19h4M13 19h5M24 19h1M26 19h1M33 19h1M33 20h1M3 21h1M16 21h3M26 21h3M33 21h1M33 22h1M4 23h1M17 23h1M33 23h1M17 24h1M33 24h1M17 25h1M33 25h1M13 26h1M17 26h1M33 26h1M17 27h1M33 27h1M7 28h1M17 28h1M33 28h1M17 29h1M33 29h1M17 30h1M33 30h1M33 31h1M24 32h1M33 32h1M3 33h31M3 34h31M7 35h1M9 35h1M11 35h1M15 35h1M17 35h1M19 35h1M23 35h1M25 35h1M27 35h1M31 35h3M7 36h1M9 36h1M11 36h1M13 36h1M15 36h1M17 36h1M19 36h1M21 36h3M25 36h1M27 36h2M30 36h4M6 37h2M11 37h1M13 37h1M15 37h1M17 37h1M19 37h1M21 37h1M23 37h1M27 37h2M30 37h4M6 38h2M9 38h1M11 38h1M13 38h1M15 38h1M17 38h1M19 38h1M21 38h1M23 38h1M25 38h1M27 38h2M30 38h4M6 39h2M9 39h1M11 39h2M15 39h2M19 39h1M23 39h1M25 39h1M27 39h2M30 39h4M33 40h1M2 41h32" />
<path stroke="#fefefe" d="M2 2h31M2 3h2M9 3h4M20 3h3M28 3h5M2 4h1M11 4h2M19 4h3M29 4h4M2 5h1M4 5h5M12 5h3M17 5h5M24 5h4M30 5h3M2 6h1M4 6h6M12 6h3M17 6h4M23 6h5M30 6h3M2 7h1M4 7h6M12 7h3M17 7h3M22 7h11M2 8h1M4 8h7M12 8h3M17 8h3M22 8h11M2 9h1M4 9h6M12 9h3M17 9h3M22 9h11M2 10h1M4 10h4M12 10h3M17 10h3M22 10h11M2 11h1M10 11h5M17 11h3M22 11h5M32 11h1M2 12h1M4 12h3M9 12h1M11 12h4M17 12h3M22 12h5M32 12h1M2 13h1M4 13h6M12 13h3M17 13h3M22 13h7M31 13h2M2 14h1M4 14h6M12 14h3M17 14h3M22 14h7M31 14h2M2 15h1M4 15h7M12 15h3M17 15h4M22 15h7M31 15h2M2 16h1M4 16h6M12 16h3M17 16h4M22 16h7M31 16h2M2 17h1M4 17h5M12 17h3M17 17h4M24 17h3M31 17h2M2 18h1M11 18h2M20 18h1M31 18h2M2 19h1M9 19h4M18 19h6M25 19h1M27 19h2M30 19h3M2 20h31M2 21h1M4 21h4M9 21h4M14 21h1M21 21h5M30 21h3M2 22h1M4 22h4M9 22h4M14 22h1M19 22h1M21 22h5M31 22h2M2 23h1M5 23h3M10 23h3M14 23h2M18 23h2M21 23h5M27 23h3M32 23h1M2 24h2M5 24h2M10 24h2M14 24h2M18 24h2M21 24h5M27 24h3M32 24h1M2 25h2M5 25h2M11 25h1M13 25h3M18 25h2M21 25h5M27 25h3M32 25h1M2 26h2M6 26h1M8 26h1M10 26h2M14 26h2M18 26h2M21 26h5M27 26h4M32 26h1M2 27h2M5 27h1M8 27h1M13 27h3M18 27h2M21 27h5M27 27h3M32 27h1M2 28h3M8 28h2M13 28h3M18 28h2M21 28h5M27 28h3M32 28h1M2 29h3M8 29h2M13 29h3M18 29h2M21 29h5M27 29h3M32 29h1M2 30h3M6 30h4M12 30h4M18 30h2M21 30h5M27 30h3M32 30h1M2 31h3M6 31h5M12 31h3M18 31h1M25 31h1M31 31h2M2 32h22M25 32h8M2 33h1M2 34h1M2 35h2M2 36h3M2 37h3M2 38h3M2 39h3M2 40h31" />
<path stroke="#434343" d="M4 3h4M13 3h7M25 3h3M3 4h1M9 4h1M16 4h1M24 4h1M28 4h1M3 5h1M16 5h1M23 5h1M29 5h1M3 6h1M11 6h1M16 6h1M21 6h2M3 7h1M11 7h1M16 7h1M21 7h1M3 8h1M11 8h1M16 8h1M21 8h1M3 9h1M10 9h1M16 9h1M20 9h1M3 10h1M9 10h1M16 10h1M20 10h1M3 11h1M16 11h1M20 11h1M27 11h5M3 12h1M16 12h1M20 12h1M29 12h1M3 13h1M16 13h1M20 13h1M29 13h1M3 14h1M11 14h1M16 14h1M21 14h1M29 14h1M3 15h1M11 15h1M16 15h1M21 15h1M29 15h1M3 16h1M11 16h1M16 16h1M21 16h1M29 16h1M3 17h1M16 17h1M22 17h1M29 17h1M3 18h7M13 18h7M23 18h6M3 22h1M8 22h1M13 22h1M15 22h3M20 22h1M26 22h4M3 23h1M8 23h1M13 23h1M16 23h1M20 23h1M26 23h1M30 23h1M7 24h3M13 24h1M16 24h1M20 24h1M26 24h1M31 24h1M4 25h1M7 25h1M9 25h1M12 25h1M16 25h1M20 25h1M26 25h1M31 25h1M4 26h1M7 26h1M9 26h1M12 26h1M16 26h1M20 26h1M26 26h1M31 26h1M4 27h1M7 27h1M9 27h2M12 27h1M16 27h1M20 27h1M26 27h1M31 27h1M5 28h2M10 28h2M16 28h1M20 28h1M26 28h1M31 28h1M5 29h2M10 29h2M16 29h1M20 29h1M26 29h1M31 29h1M5 30h1M11 30h1M16 30h1M20 30h1M26 30h1M30 30h1M5 31h1M11 31h1M15 31h3M21 31h4M26 31h4M4 35h3M8 35h1M10 35h1M12 35h2M16 35h1M18 35h1M20 35h3M24 35h1M26 35h1M28 35h2M5 36h1M8 36h1M10 36h1M12 36h1M14 36h1M16 36h1M18 36h1M20 36h1M24 36h1M26 36h1M29 36h1M5 37h1M8 37h3M12 37h1M14 37h1M16 37h1M18 37h1M20 37h1M22 37h1M24 37h3M29 37h1M5 38h1M8 38h1M10 38h1M12 38h1M14 38h1M16 38h1M18 38h1M20 38h1M22 38h1M24 38h1M26 38h1M29 38h1M5 39h1M8 39h1M10 39h1M13 39h1M17 39h1M20 39h2M24 39h1M26 39h1M29 39h1" />
<path stroke="#fafafa" d="M8 3h1M10 4h1M26 4h1M11 5h1M20 7h1M8 12h1M31 12h1M23 17h1M3 19h1M8 21h1M29 21h1M8 25h1M10 25h1M6 27h1M30 28h1M7 29h1M12 29h1M31 30h1M19 31h1" />
<path stroke="#3d3d3d" d="M8 4h1" />
<path stroke="#181818" d="M23 4h1" />
<path stroke="#101010" d="M27 4h1M28 5h1M10 12h1" />
<path stroke="#fdfdfd" d="M9 5h1M28 6h1M8 10h1M7 12h1M27 12h2M11 17h1M8 19h1M29 19h1M13 21h1M15 21h1M20 21h1M18 22h1M30 22h1M31 23h1M12 24h1M30 24h1M30 25h1M5 26h1M11 27h1M30 27h1M30 29h1M10 30h1" />
<path stroke="#1d1d1d" d="M10 5h1M22 5h1M4 11h6M10 17h1" />
<path stroke="#000000" d="M29 6h1M10 10h1" />
<path stroke="#383838" d="M10 13h1" />
<path stroke="#f3f3f3" d="M9 17h1M19 21h1M9 23h1M1 41h1" />
<path stroke="#727272" d="M28 17h1M30 35h1M18 39h1" />
<path stroke="#cbcbcb" d="M10 18h1M12 28h1M20 31h1M30 31h1M14 35h1M6 36h1M14 39h1M22 39h1" />
<path stroke="#8b8b8b" d="M29 18h1" />
<path stroke="#474747" d="M4 24h1" />
</svg>