<svg xmlns="http://www.w3.org/2000/svg" viewBox="0 -0.5 32 31" shape-rendering="crispEdges">
<metadata>Made with Pixels to Svg https://codepen.io/shshaw/pen/XbxvNj</metadata>
<path stroke="#50b28c" d="M12 0h1M30 20h1" />
<path stroke="#4fb18d" d="M13 0h1M14 1h1M15 2h1" />
<path stroke="#4db18f" d="M14 0h1M15 1h1M16 2h1M17 3h1" />
<path stroke="#4bb190" d="M15 0h1" />
<path stroke="#4bb091" d="M16 0h1M17 1h1M18 2h1M28 13h1M30 16h1M31 17h1" />
<path stroke="#48b093" d="M17 0h1M18 1h1M19 2h1M21 4h1M28 12h1M29 13h1M30 14h1M31 15h1" />
<path stroke="#47b094" d="M18 0h1M19 1h1M22 4h1M23 5h1M24 6h1M25 7h1M27 10h1M29 12h1M30 13h1M31 14h1" />
<path stroke="#45af95" d="M19 0h1M30 12h1M31 13h1" />
<path stroke="rgba(87,180,131,0.8784313725490196)" d="M9 1h1M27 21h1" />
<path stroke="#54b387" d="M10 1h1M11 2h1M12 3h1M27 20h1M28 21h1M29 22h1" />
<path stroke="#52b289" d="M11 1h1M12 2h1M28 20h1M29 21h1" />
<path stroke="#51b28a" d="M12 1h1M13 2h1M14 3h1M29 20h1" />
<path stroke="#4fb28c" d="M13 1h1M14 2h1M28 17h1" />
<path stroke="#4bb090" d="M16 1h1M17 2h1M18 3h1M29 15h1" />
<path stroke="rgba(65,175,152,0.9411764705882353)" d="M22 1h1" />
<path stroke="#56b384" d="M9 2h1M10 4h1" />
<path stroke="#54b386" d="M10 2h1M11 3h1" />
<path stroke="#43af97" d="M22 2h1M23 3h1M24 4h1M25 5h1" />
<path stroke="#42af98" d="M23 2h1M24 3h1M25 4h1M29 9h1" />
<path stroke="#40ae9a" d="M24 2h1M25 3h1M26 4h1M27 5h1M28 6h1" />
<path stroke="#5bb57f" d="M6 3h1M7 4h1M8 5h1M25 24h1M26 25h1" />
<path stroke="rgba(88,175,135,0.12549019607843137)" d="M9 3h1" />
<path stroke="#56b385" d="M10 3h1" />
<path stroke="#52b389" d="M13 3h1" />
<path stroke="rgba(80,177,141,0.5019607843137255)" d="M15 3h2M28 15h1" />
<path stroke="rgba(72,175,148,0.6274509803921569)" d="M19 3h1" />
<path stroke="rgba(72,175,146,0.3764705882352941)" d="M21 3h1" />
<path stroke="#44af96" d="M22 3h1M23 4h1M24 5h1M25 6h1M31 12h1" />
<path stroke="#5db57c" d="M5 4h1M6 5h1M7 6h1M25 26h1" />
<path stroke="#5db57d" d="M6 4h1M24 24h1M25 25h1M26 26h1" />
<path stroke="#60b679" d="M4 5h1M5 6h1" />
<path stroke="#5eb67a" d="M5 5h1M6 6h1M23 25h1M24 26h1M25 27h1" />
<path stroke="#5bb57d" d="M7 5h1" />
<path stroke="rgba(96,100,98,0.4392156862745098)" d="M13 5h1M22 23h1" />
<path stroke="#606461" d="M14 5h4M12 6h6M20 6h1M12 7h6M20 7h2M8 8h2M13 8h5M20 8h4M7 9h4M19 9h6M7 10h4M21 10h4M6 11h4M22 11h3M6 12h4M7 13h2M25 13h1M23 14h3M5 15h4M23 15h4M6 16h3M23 16h3M6 17h3M23 17h3M6 18h4M23 18h3M6 19h4M24 19h2M7 20h2M21 20h1M11 21h2M19 21h5M10 22h6M18 22h6M10 23h6M18 23h4M11 24h5M18 24h3M14 25h2" />
<path stroke="rgba(96,100,98,0.5019607843137255)" d="M18 5h1M6 13h1" />
<path stroke="#40af99" d="M26 5h1M27 6h1M28 7h1M29 8h1M30 9h1" />
<path stroke="#62b675" d="M3 6h1M21 26h1M22 27h1M23 28h1" />
<path stroke="#60b677" d="M4 6h1M5 7h1M22 26h1M23 27h1" />
<path stroke="rgba(96,101,97,0.8156862745098039)" d="M11 6h1M9 7h1M10 8h1M7 21h1" />
<path stroke="rgba(96,101,98,0.3764705882352941)" d="M18 6h1M19 8h1M9 20h1" />
<path stroke="#42af97" d="M26 6h1M27 7h1M28 8h1" />
<path stroke="rgba(98,183,116,0.9411764705882353)" d="M2 7h1" />
<path stroke="#63b774" d="M3 7h1M4 8h1M22 28h1" />
<path stroke="#62b676" d="M4 7h1M5 8h1" />
<path stroke="#5eb679" d="M6 7h1" />
<path stroke="rgba(96,100,97,0.9411764705882353)" d="M22 7h1" />
<path stroke="#45af96" d="M26 7h1M27 8h1M28 9h1" />
<path stroke="#40ae9b" d="M29 7h1" />
<path stroke="#65b771" d="M2 8h1M3 9h1M4 10h1M20 27h1M21 28h1" />
<path stroke="#63b772" d="M3 8h1" />
<path stroke="#46b095" d="M26 8h1M27 9h1" />
<path stroke="#66b86e" d="M1 9h1M2 10h1M3 11h1M18 27h1" />
<path stroke="#66b86f" d="M2 9h1M3 10h1M19 28h1M20 29h1" />
<path stroke="#63b773" d="M4 9h1M21 27h1" />
<path stroke="#68b86c" d="M1 10h1" />
<path stroke="rgba(71,175,149,0.5647058823529412)" d="M28 10h1" />
<path stroke="rgba(112,191,96,0.06274509803921569)" d="M0 11h1M9 25h1" />
<path stroke="#68b96b" d="M1 11h1M18 29h1" />
<path stroke="#68b86d" d="M2 11h1M3 12h1M18 28h1" />
<path stroke="rgba(96,100,97,0.8784313725490196)" d="M25 11h1M22 18h1" />
<path stroke="rgba(64,175,154,0.18823529411764706)" d="M31 11h1" />
<path stroke="#6aba68" d="M0 12h1" />
<path stroke="#69b969" d="M1 12h1" />
<path stroke="#69b96b" d="M2 12h1" />
<path stroke="rgba(108,187,100,0.8784313725490196)" d="M0 14h1" />
<path stroke="rgba(104,183,104,0.12549019607843137)" d="M1 14h1" />
<path stroke="rgba(96,100,97,0.7529411764705882)" d="M26 14h1M26 16h1" />
<path stroke="rgba(74,177,143,0.7529411764705882)" d="M28 14h1" />
<path stroke="#49b092" d="M29 14h1M30 15h1M31 16h1" />
<path stroke="#6dbb63" d="M0 15h1M1 16h1M2 17h1M3 19h1M4 20h1M10 26h1M11 27h1M12 28h1M13 30h1" />
<path stroke="#6cba65" d="M1 15h1M2 16h1M12 27h1" />
<path stroke="#6aba66" d="M2 15h1" />
<path stroke="rgba(106,186,104,0.7529411764705882)" d="M3 15h1" />
<path stroke="#6dbb62" d="M0 16h1M1 17h1M2 18h1M10 27h1M11 28h1M12 29h1" />
<path stroke="#6aba67" d="M3 16h1M13 27h1M14 28h1M15 29h1M16 30h1" />
<path stroke="rgba(96,99,97,0.5647058823529412)" d="M5 16h1" />
<path stroke="rgba(80,178,139,0.8784313725490196)" d="M28 16h1" />
<path stroke="#4db190" d="M29 16h1M30 17h1M31 18h1" />
<path stroke="#6fbb60" d="M0 17h1M1 18h1M2 19h1M10 28h1M11 29h1" />
<path stroke="#6cba66" d="M3 17h1M13 28h1M14 29h1M15 30h1" />
<path stroke="#4fb18e" d="M29 17h1" />
<path stroke="#6fbc5f" d="M0 18h1M1 19h1M2 20h1M10 29h1" />
<path stroke="#6cbb64" d="M3 18h1M13 29h1M14 30h1" />
<path stroke="#50b28b" d="M28 18h1M29 19h1" />
<path stroke="#4fb28d" d="M29 18h1M30 19h1" />
<path stroke="#4db18e" d="M30 18h1" />
<path stroke="#52b28a" d="M28 19h1M30 21h1" />
<path stroke="rgba(72,175,143,0.12549019607843137)" d="M31 19h1" />
<path stroke="#70bc5d" d="M1 20h1M2 21h1M6 26h1M7 27h1M8 28h1" />
<path stroke="#6fbb61" d="M3 20h1M4 21h1M5 22h1" />
<path stroke="#72bd5b" d="M1 21h1M2 22h1M6 27h1" />
<path stroke="#6fbc60" d="M3 21h1M4 22h1M5 23h1" />
<path stroke="#70bc5e" d="M3 22h1M4 23h1M7 26h1M8 27h1M9 28h1" />
<path stroke="rgba(113,190,89,0.6274509803921569)" d="M2 23h1" />
<path stroke="#70bc5c" d="M3 23h1M4 24h1" />
<path stroke="rgba(96,99,96,0.3137254901960784)" d="M9 23h1" />
<path stroke="#5ab480" d="M25 23h1M26 24h1M27 25h1" />
<path stroke="#5ab481" d="M26 23h1" />
<path stroke="#71bd5b" d="M3 24h1" />
<path stroke="#58b482" d="M27 24h2" />
<path stroke="rgba(114,189,93,0.3764705882352941)" d="M6 25h1M9 29h1" />
<path stroke="#6fbb5f" d="M7 25h1M8 26h1M9 27h1" />
<path stroke="#6dbb61" d="M8 25h1M9 26h1" />
<path stroke="#5eb67c" d="M24 25h1" />
<path stroke="#60b678" d="M23 26h1M24 27h1" />
<path stroke="#6ab968" d="M14 27h1M15 28h1" />
<path stroke="#69b96a" d="M15 27h1" />
<path stroke="#65b770" d="M19 27h1M20 28h1M21 29h1" />
<path stroke="rgba(113,189,91,0.9411764705882353)" d="M7 28h1" />
<path stroke="rgba(93,182,122,0.9411764705882353)" d="M24 28h1" />
<path stroke="rgba(104,185,108,0.5019607843137255)" d="M16 29h1M18 30h1" />
<path stroke="#66b86d" d="M19 29h1" />
<path stroke="rgba(98,181,118,0.5019607843137255)" d="M22 29h1" />
<path stroke="rgba(110,188,96,0.8156862745098039)" d="M12 30h1" />
<path stroke="rgba(104,186,107,0.8784313725490196)" d="M19 30h1" />
</svg>