<svg xmlns="http://www.w3.org/2000/svg" viewBox="0 -0.5 27 17" shape-rendering="crispEdges">
<metadata>Made with Pixels to Svg https://codepen.io/shshaw/pen/XbxvNj</metadata>
<path stroke="#5e5e5e" d="M1 0h25M0 1h1M26 1h1M0 2h1M26 2h1M0 3h1M26 3h1M0 4h1M26 4h1M0 5h1M26 5h1M0 6h1M26 6h1M0 7h1M26 7h1M0 8h1M26 8h1M0 9h1M26 9h1M0 10h1M26 10h1M0 11h1M26 11h1M0 12h1M26 12h1M0 13h1M26 13h1M0 14h1M26 14h1M0 15h1M26 15h1M1 16h25" />
<path stroke="#2c2c2c" d="M1 1h25M1 2h25M1 3h25M1 4h25M1 5h1M5 5h4M18 5h4M25 5h1M1 6h1M4 6h3M8 6h1M18 6h1M20 6h3M25 6h1M1 7h1M4 7h2M8 7h1M18 7h1M21 7h2M25 7h1M1 8h1M4 8h2M8 8h1M18 8h1M21 8h2M25 8h1M1 9h1M4 9h2M8 9h1M18 9h1M21 9h2M25 9h1M1 10h1M4 10h2M8 10h1M18 10h1M20 10h3M25 10h1M1 11h2M7 11h2M18 11h2M24 11h2M1 12h23M25 12h1M1 13h25M1 14h23M25 14h1M1 15h25" />
<path stroke="#3b3b3b" d="M2 5h1M24 5h1M6 10h1" />
<path stroke="#dedede" d="M3 5h2M22 5h2M2 6h2M7 6h1M19 6h1M23 6h2M2 7h2M6 7h2M19 7h2M23 7h2M2 8h2M6 8h2M19 8h2M23 8h2M2 9h2M6 9h2M19 9h2M23 9h2M2 10h2M7 10h1M19 10h1M23 10h2M3 11h2M22 11h2" />
<path stroke="#e73d39" d="M9 5h1M17 5h1" />
<path stroke="#e94340" d="M10 5h1" />
<path stroke="#eb4844" d="M11 5h1M15 5h1" />
<path stroke="#ed4c49" d="M12 5h1M14 5h1" />
<path stroke="#ef514e" d="M13 5h1" />
<path stroke="#e9423f" d="M16 5h1" />
<path stroke="#e63b37" d="M9 6h1M17 6h1" />
<path stroke="#e8413d" d="M10 6h1M16 6h1" />
<path stroke="#ea4643" d="M11 6h1M15 6h1" />
<path stroke="#eb4946" d="M12 6h1M14 6h1" />
<path stroke="#ec4b48" d="M13 6h1" />
<path stroke="#f2f2f2" d="M9 7h1M17 7h1M9 8h1M10 9h1M16 9h1" />
<path stroke="#f4f4f4" d="M10 7h1M16 7h1M11 9h2M14 9h1" />
<path stroke="#f6f6f6" d="M11 7h1M15 7h1" />
<path stroke="#f7f7f7" d="M12 7h3" />
<path stroke="#bdbdbd" d="M10 8h7M10 10h7" />
<path stroke="#f1f1f1" d="M17 8h1M9 9h1M17 9h1M12 11h3" />
<path stroke="#f5f5f5" d="M13 9h1" />
<path stroke="#f3f3f3" d="M15 9h1" />
<path stroke="#f0f0f0" d="M9 10h1M11 11h1M15 11h1" />
<path stroke="#efefef" d="M17 10h1M10 11h1M16 11h1" />
<path stroke="#2b2b2b" d="M5 11h1M21 11h1" />
<path stroke="#2d2d2d" d="M6 11h1M20 11h1M24 12h1M24 14h1" />
<path stroke="#eeeeee" d="M9 11h1M17 11h1" />
</svg>