<svg xmlns="http://www.w3.org/2000/svg" viewBox="0 -0.5 27 11" shape-rendering="crispEdges">
<metadata>Made with Pixels to Svg https://codepen.io/shshaw/pen/XbxvNj</metadata>
<path stroke="#000000" d="M1 0h2M10 0h1M13 0h1M15 0h3M19 0h3M0 1h1M10 1h2M13 1h1M16 1h1M20 1h1M0 2h1M2 2h1M10 2h1M12 2h2M16 2h1M20 2h1M0 3h1M2 3h1M10 3h1M13 3h1M16 3h1M20 3h1M0 4h3M10 4h1M13 4h1M16 4h1M20 4h1M0 6h2M4 6h1M6 6h1M9 6h2M12 6h3M17 6h2M20 6h2M25 6h2M0 7h1M2 7h1M4 7h1M6 7h1M8 7h1M13 7h1M16 7h1M20 7h1M22 7h1M24 7h1M0 8h2M4 8h1M6 8h1M8 8h3M13 8h1M16 8h3M20 8h2M24 8h3M0 9h1M2 9h1M4 9h1M6 9h1M10 9h1M13 9h1M16 9h1M20 9h1M22 9h1M26 9h1M0 10h3M4 10h3M8 10h2M13 10h1M16 10h3M20 10h1M22 10h1M24 10h2" />
<path stroke="#fb7070" d="M5 0h3M4 1h1M6 1h1M8 1h1M4 2h5M4 3h5M4 4h1M6 4h1M8 4h1" />
</svg>