<svg xmlns="http://www.w3.org/2000/svg" viewBox="0 -0.5 34 11" shape-rendering="crispEdges">
<metadata>Made with Pixels to Svg https://codepen.io/shshaw/pen/XbxvNj</metadata>
<path stroke="#000000" d="M0 0h2M4 0h2M7 0h3M11 0h3M18 0h2M22 0h3M0 1h2M4 1h2M7 1h2M11 1h2M17 1h2M20 1h1M22 1h2M0 2h2M4 2h2M7 2h3M11 2h3M17 2h2M20 2h1M22 2h3M0 3h2M4 3h2M7 3h2M11 3h2M17 3h2M20 3h1M22 3h2M0 4h3M4 4h2M7 4h2M11 4h3M18 4h2M22 4h2M0 6h2M5 6h1M7 6h2M10 6h2M14 6h3M19 6h2M22 6h1M24 6h3M0 7h2M5 7h1M7 7h2M10 7h2M14 7h2M17 7h1M19 7h2M22 7h1M24 7h2M27 7h1M0 8h2M5 8h1M7 8h2M10 8h2M14 8h4M19 8h2M22 8h1M24 8h3M0 9h2M3 9h1M5 9h1M7 9h2M10 9h2M14 9h2M17 9h1M19 9h2M22 9h1M24 9h2M27 9h1M1 10h4M7 10h2M10 10h3M14 10h4M19 10h4M24 10h2M27 10h1" />
<path stroke="#fb7b7b" d="M29 6h5M29 7h5M29 8h5M29 9h5M29 10h1" />
</svg>