<svg xmlns="http://www.w3.org/2000/svg" viewBox="0 -0.5 29 29" shape-rendering="crispEdges">
<metadata>Made with Pixels to Svg https://codepen.io/shshaw/pen/XbxvNj</metadata>
<path stroke="#00c5e8" d="M3 0h1M7 0h1M3 1h5M2 2h7M0 3h10M1 4h9M0 5h11M1 6h10M1 7h9M1 8h9M2 9h7M4 10h3" />
<path stroke="rgba(0,197,233,0.9215686274509803)" d="M4 0h1" />
<path stroke="rgba(0,197,232,0.996078431372549)" d="M5 0h1" />
<path stroke="rgba(0,197,232,0.9294117647058824)" d="M6 0h1" />
<path stroke="#ffbe00" d="M21 0h1M24 0h2M21 1h4M19 2h8M19 3h10M18 4h11M18 5h10M18 6h10M18 7h11M19 8h9M20 9h7M21 10h4" />
<path stroke="rgba(255,189,0,0.8941176470588236)" d="M22 0h1" />
<path stroke="rgba(255,190,0,0.8980392156862745)" d="M23 0h1" />
<path stroke="#00c7eb" d="M2 1h1" />
<path stroke="#00c7ea" d="M8 1h1M3 10h1M7 10h1" />
<path stroke="rgba(255,166,0,0.0784313725490196)" d="M19 1h1" />
<path stroke="#ffc000" d="M20 1h1M25 10h1" />
<path stroke="#ffbf00" d="M25 1h1M18 3h1" />
<path stroke="rgba(255,189,0,0.6549019607843137)" d="M26 1h1" />
<path stroke="#00ccf1" d="M1 2h1" />
<path stroke="#00c9ed" d="M9 2h1" />
<path stroke="rgba(255,184,0,0.21176470588235294)" d="M18 2h1" />
<path stroke="rgba(255,189,0,0.8156862745098039)" d="M27 2h1" />
<path stroke="rgba(0,198,231,0.8352941176470589)" d="M10 3h1" />
<path stroke="#00c8eb" d="M0 4h1M10 7h1" />
<path stroke="#00c6e9" d="M10 4h1M0 6h1" />
<path stroke="rgba(255,192,0,0.9764705882352941)" d="M28 5h1" />
<path stroke="rgba(255,190,0,0.9764705882352941)" d="M28 6h1" />
<path stroke="rgba(0,197,233,0.9764705882352941)" d="M0 7h1" />
<path stroke="#000000" d="M12 9h5M11 10h7M10 11h9M9 12h11M9 13h11M9 14h11M9 15h11M9 16h11M10 17h9M11 18h7M12 19h5" />
<path stroke="rgba(236,46,46,0.9686274509803922)" d="M3 18h1" />
<path stroke="#ee3030" d="M4 18h1M6 18h1M0 22h1M0 24h1" />
<path stroke="#ed2f2f" d="M5 18h1M1 20h1M4 28h1" />
<path stroke="rgba(236,45,45,0.8588235294117647)" d="M7 18h1" />
<path stroke="rgba(27,185,33,0.9686274509803922)" d="M21 18h1" />
<path stroke="#1cbb22" d="M22 18h1" />
<path stroke="#1cbb21" d="M23 18h2M27 20h1M24 28h1" />
<path stroke="rgba(26,184,30,0.7215686274509804)" d="M25 18h1" />
<path stroke="#eb2f2f" d="M2 19h6M2 20h8M1 21h9M1 22h10M0 23h11M1 24h10M1 25h9M2 26h8M2 27h7M5 28h1" />
<path stroke="#ec2f2f" d="M8 19h1M1 26h1M6 28h1" />
<path stroke="#1cb921" d="M20 19h6M19 20h8M19 21h10M18 22h10M18 23h10M18 24h10M19 25h10M19 26h9M20 27h6M23 28h1" />
<path stroke="#1dbc22" d="M26 19h1" />
<path stroke="rgba(235,45,45,0.8627450980392157)" d="M0 21h1" />
<path stroke="rgba(235,46,46,0.9882352941176471)" d="M10 21h1" />
<path stroke="#1cba21" d="M18 21h1M28 23h1M28 24h1M18 25h1M26 27h1M22 28h1" />
<path stroke="rgba(28,185,33,0.9647058823529412)" d="M28 22h1" />
<path stroke="rgba(235,46,46,0.8941176470588236)" d="M0 25h1" />
<path stroke="#ef3030" d="M10 25h1" />
<path stroke="rgba(12,172,18,0.16862745098039217)" d="M27 27h1" />
<path stroke="rgba(235,46,46,0.984313725490196)" d="M3 28h1M7 28h1" />
<path stroke="rgba(28,185,33,0.9882352941176471)" d="M21 28h1" />
<path stroke="rgba(27,185,32,0.9568627450980393)" d="M25 28h1" />
</svg>