<svg xmlns="http://www.w3.org/2000/svg" viewBox="0 -0.5 18 24" shape-rendering="crispEdges">
<metadata>Made with Pixels to Svg https://codepen.io/shshaw/pen/XbxvNj</metadata>
<path stroke="#000000" d="M7 0h4M4 1h4M10 1h4M0 2h5M13 2h5M0 3h1M0 4h1M7 4h4M0 5h1M6 5h2M10 5h2M0 6h1M5 6h2M11 6h2M0 7h1M5 7h1M12 7h1M0 8h1M5 8h1M12 8h1M0 9h1M5 9h1M12 9h1M0 10h1M5 10h2M11 10h2M0 11h1M6 11h2M10 11h2M0 12h1M7 12h4M0 13h1M4 13h4M10 13h4M0 14h1M3 14h2M13 14h2M0 15h1M3 15h1M14 15h1M17 15h1M0 16h1M3 16h1M14 16h1M17 16h1M0 17h2M3 17h12M16 17h2M1 18h1M16 18h1M1 19h2M15 19h2M2 20h2M14 20h2M3 21h2M13 21h2M4 22h3M11 22h3M6 23h6" />
<path stroke="#799dd3" d="M8 13h2M5 14h8M4 15h10M4 16h10" />
<path stroke="rgba(255,255,255,0.25098039215686274)" d="M5 21h1" />
<path stroke="rgba(255,255,255,0.06274509803921569)" d="M12 21h1" />
</svg>