<svg xmlns="http://www.w3.org/2000/svg" viewBox="0 -0.5 36 20" shape-rendering="crispEdges">
<metadata>Made with Pixels to Svg https://codepen.io/shshaw/pen/XbxvNj</metadata>
<path stroke="rgba(0,0,0,0.9372549019607843)" d="M7 0h1M0 12h1M26 16h1" />
<path stroke="#000000" d="M8 0h4M5 1h10M21 1h3M32 1h3M3 2h13M21 2h3M32 2h3M2 3h5M12 3h5M21 3h3M32 3h3M2 4h4M13 4h5M21 4h3M32 4h3M1 5h4M15 5h3M21 5h3M32 5h3M1 6h3M15 6h4M21 6h3M32 6h3M0 7h4M16 7h3M21 7h3M32 7h3M0 8h4M16 8h3M21 8h3M32 8h3M0 9h4M16 9h3M21 9h3M32 9h3M0 10h4M16 10h3M21 10h3M32 10h3M0 11h4M16 11h3M21 11h3M32 11h3M1 12h3M15 12h4M21 12h3M32 12h3M1 13h3M15 13h3M21 13h3M32 13h3M1 14h4M14 14h4M21 14h3M32 14h3M2 15h4M13 15h4M21 15h4M31 15h4M3 16h13M22 16h4M30 16h4M4 17h16M23 17h11M5 18h15M24 18h9M9 19h11M25 19h6" />
<path stroke="rgba(0,0,0,0.12549019607843137)" d="M4 1h1M18 13h1" />
<path stroke="rgba(0,0,0,0.25098039215686274)" d="M35 1h1M35 2h1M35 3h1M35 4h1M35 5h1M35 6h1M35 7h1M35 8h1M35 9h1M35 10h1M35 11h1M35 12h1" />
<path stroke="rgba(0,0,0,0.8745098039215686)" d="M7 3h1M15 7h1" />
<path stroke="rgba(0,0,0,0.3137254901960784)" d="M11 3h1" />
<path stroke="rgba(0,0,0,0.18823529411764706)" d="M1 4h1M4 13h1M23 18h1" />
<path stroke="rgba(0,0,0,0.8117647058823529)" d="M14 5h1" />
<path stroke="rgba(0,0,0,0.5019607843137255)" d="M24 14h1" />
<path stroke="rgba(0,0,0,0.6235294117647059)" d="M2 16h1M22 17h1" />
<path stroke="rgba(0,0,0,0.5607843137254902)" d="M34 16h1" />
<path stroke="rgba(0,0,0,0.06274509803921569)" d="M3 17h1" />
<path stroke="rgba(0,0,0,0.7490196078431373)" d="M20 17h1M20 18h1M20 19h1" />
<path stroke="rgba(0,0,0,0.4392156862745098)" d="M8 19h1" />
</svg>