<svg xmlns="http://www.w3.org/2000/svg" viewBox="0 -0.5 22 29" shape-rendering="crispEdges">
<metadata>Made with Pixels to Svg https://codepen.io/shshaw/pen/XbxvNj</metadata>
<path stroke="#000000" d="M12 0h9M11 1h11M11 2h1M20 2h2M6 3h6M13 3h8M3 4h4M8 4h4M13 4h1M1 5h3M13 5h3M1 6h1M14 6h5M1 7h1M17 7h2M1 8h1M17 8h2M1 9h1M17 9h2M1 10h1M17 10h2M1 11h1M17 11h2M1 12h1M17 12h2M1 13h1M17 13h2M1 14h1M17 14h2M1 15h1M17 15h2M1 16h1M17 16h2M1 17h1M17 17h2M1 18h1M17 18h2M1 19h1M17 19h2M1 20h1M17 20h2M1 21h1M17 21h2M1 22h1M17 22h2M1 23h1M17 23h2M1 24h2M17 24h2M1 25h5M17 25h2M4 26h5M14 26h5M7 27h9M10 28h3" />
<path stroke="rgba(0,0,0,0.050980392156862744)" d="M7 2h1M4 3h1M1 4h1" />
<path stroke="rgba(0,0,0,0.7686274509803922)" d="M10 2h1" />
<path stroke="#8e6700" d="M12 2h1" />
<path stroke="#ffbb00" d="M13 2h1M12 4h1" />
<path stroke="#fab500" d="M14 2h5" />
<path stroke="#f9b500" d="M19 2h1" />
<path stroke="rgba(0,0,0,0.9333333333333333)" d="M5 3h1M2 4h1" />
<path stroke="#ffb900" d="M12 3h1M11 6h1M11 7h1" />
<path stroke="rgba(0,0,0,0.3568627450980392)" d="M21 3h1" />
<path stroke="#101510" d="M7 4h1" />
<path stroke="rgba(0,0,0,0.984313725490196)" d="M14 4h1" />
<path stroke="rgba(0,0,0,0.6627450980392157)" d="M15 4h4" />
<path stroke="rgba(0,0,0,0.6666666666666666)" d="M19 4h1" />
<path stroke="rgba(0,0,0,0.058823529411764705)" d="M20 4h1" />
<path stroke="rgba(0,0,0,0.9411764705882353)" d="M0 5h1M0 6h1M0 7h1M0 8h1M0 9h1M0 10h1M0 11h1M0 12h1M0 13h1M0 14h1M0 15h1M0 16h1M0 17h1M0 18h1M0 19h1M0 20h1M0 21h1M0 22h1M0 23h1M0 24h1" />
<path stroke="#0c140c" d="M4 5h1" />
<path stroke="#76d472" d="M5 5h1" />
<path stroke="#a3e3a2" d="M6 5h1M9 6h1" />
<path stroke="#aae5aa" d="M7 5h2M4 6h2M10 6h1M7 7h3M14 7h2M12 8h1" />
<path stroke="#abe6ab" d="M9 5h1" />
<path stroke="#7ba67b" d="M10 5h1M13 6h1" />
<path stroke="#ac7d00" d="M11 5h1" />
<path stroke="#503a00" d="M12 5h1" />
<path stroke="rgba(0,0,0,0.6235294117647059)" d="M16 5h1" />
<path stroke="#91dc8f" d="M2 6h1" />
<path stroke="#abe5ab" d="M3 6h1" />
<path stroke="#a7e4a7" d="M6 6h1" />
<path stroke="#7cdc78" d="M7 6h1" />
<path stroke="#79db75" d="M8 6h1M3 7h3M3 8h6M3 9h8M3 10h8M3 11h1M6 11h5M3 12h1M8 12h3M3 13h1M9 13h2M3 14h1M10 14h1M3 15h2M10 15h1M3 16h2M10 16h1M3 17h2M9 17h2M3 18h4M8 18h3M3 19h8M3 20h8M6 21h5M9 22h2" />
<path stroke="#aae7ac" d="M12 6h1" />
<path stroke="#7bdf77" d="M2 7h1M2 8h1M2 9h1M2 10h1M2 11h1M2 12h1M2 13h1M2 14h1M2 15h1M2 16h1M2 17h1M2 18h1M2 19h1" />
<path stroke="#a1e3a0" d="M6 7h1M9 8h1" />
<path stroke="#9de39f" d="M10 7h1" />
<path stroke="#7edc7b" d="M12 7h1" />
<path stroke="#a9e5a9" d="M13 7h1" />
<path stroke="#97df97" d="M16 7h1" />
<path stroke="#10c507" d="M10 8h1" />
<path stroke="#25c50a" d="M11 8h1" />
<path stroke="#89d988" d="M13 8h1" />
<path stroke="#14a20f" d="M14 8h1" />
<path stroke="#13a10e" d="M15 8h1M12 9h4M13 10h2M5 12h1M15 22h2M12 23h5M12 24h5M12 25h3" />
<path stroke="#15b70d" d="M16 8h1" />
<path stroke="#57d351" d="M11 9h1" />
<path stroke="#16c60c" d="M16 9h1M12 10h1M15 10h2M12 11h2M15 11h2M12 12h5M12 13h5M12 14h5M12 15h5M12 16h5M12 17h5M12 18h5M12 19h5M12 20h5M3 21h1M12 21h5M3 22h5M12 22h2M3 23h8M5 24h6M8 25h3" />
<path stroke="#58d452" d="M11 10h1M11 11h1M11 12h1M11 13h1M11 14h1M11 15h1M11 16h1M11 17h1M11 18h1M11 19h1M11 20h1M11 21h1M11 22h1" />
<path stroke="#20a81b" d="M4 11h1" />
<path stroke="#77da73" d="M5 11h1" />
<path stroke="#14ae0d" d="M14 11h1" />
<path stroke="#7adb75" d="M4 12h1" />
<path stroke="#32a928" d="M6 12h1" />
<path stroke="#79dc75" d="M7 12h1" />
<path stroke="#f03917" d="M4 13h1" />
<path stroke="#f03a17" d="M5 13h1M5 14h4M5 15h4M6 16h3M7 17h1" />
<path stroke="#dc4218" d="M6 13h1" />
<path stroke="#ea421c" d="M7 13h1" />
<path stroke="#8bc266" d="M8 13h1" />
<path stroke="#f13816" d="M4 14h1" />
<path stroke="#89c669" d="M9 14h1" />
<path stroke="#ec3f1a" d="M9 15h1" />
<path stroke="#f13916" d="M5 16h1" />
<path stroke="#7ada75" d="M9 16h1" />
<path stroke="#7fd270" d="M5 17h1" />
<path stroke="#f23816" d="M6 17h1" />
<path stroke="#f13917" d="M8 17h1" />
<path stroke="#78dd76" d="M7 18h1" />
<path stroke="#70dc6b" d="M2 20h1" />
<path stroke="#16c90c" d="M2 21h1M2 22h1M2 23h1M4 24h1M7 25h1M10 26h1" />
<path stroke="#18c60e" d="M4 21h1" />
<path stroke="#6fd96a" d="M5 21h1" />
<path stroke="#26c91d" d="M8 22h1" />
<path stroke="#14ab0d" d="M14 22h1" />
<path stroke="#1dbd15" d="M11 23h1" />
<path stroke="#0a5605" d="M3 24h1M6 25h1M9 26h1" />
<path stroke="#15ba0d" d="M11 24h1M11 25h1M11 26h1" />
<path stroke="rgba(0,0,0,0.3215686274509804)" d="M0 25h1" />
<path stroke="#13a30e" d="M15 25h1M12 26h1" />
<path stroke="#0a5808" d="M16 25h1M13 26h1" />
<path stroke="rgba(0,0,0,0.32941176470588235)" d="M3 26h1M6 27h1M9 28h1" />
<path stroke="rgba(0,0,0,0.4549019607843137)" d="M16 27h1M13 28h1" />
</svg>