<svg xmlns="http://www.w3.org/2000/svg" viewBox="0 -0.5 53 29" shape-rendering="crispEdges">
<metadata>Made with Pixels to Svg https://codepen.io/shshaw/pen/XbxvNj</metadata>
<path stroke="#ffffff" d="M3 0h48M2 1h2M50 1h2M1 2h2M4 2h46M51 2h2M1 3h1M3 3h48M52 3h1M1 4h1M3 4h48M52 4h1M1 5h1M3 5h48M52 5h1M1 6h1M3 6h48M52 6h1M1 7h1M3 7h48M52 7h1M1 8h1M3 8h48M52 8h1M1 9h1M3 9h48M52 9h1M1 10h1M3 10h48M52 10h1M1 11h1M3 11h48M52 11h1M1 12h1M3 12h48M52 12h1M1 13h1M3 13h48M52 13h1M1 14h1M3 14h48M52 14h1M1 15h1M3 15h48M52 15h1M1 16h1M3 16h48M52 16h1M1 17h1M3 17h48M52 17h1M1 18h1M3 18h48M52 18h1M1 19h2M4 19h46M51 19h2M2 20h2M15 20h3M50 20h2M3 21h11M15 21h3M19 21h32M12 22h2M15 22h3M19 22h1M12 23h1M14 23h3M18 23h2M12 24h1M14 24h2M17 24h2M11 25h2M16 25h2M11 26h1M13 26h4M11 27h3" />
<path stroke="#000000" d="M4 1h46M3 2h1M50 2h1M2 3h1M51 3h1M2 4h1M51 4h1M2 5h1M51 5h1M2 6h1M51 6h1M2 7h1M51 7h1M2 8h1M51 8h1M2 9h1M51 9h1M2 10h1M51 10h1M2 11h1M51 11h1M2 12h1M51 12h1M2 13h1M51 13h1M2 14h1M51 14h1M2 15h1M51 15h1M2 16h1M51 16h1M2 17h1M51 17h1M2 18h1M51 18h1M3 19h1M50 19h1M4 20h11M18 20h32M14 21h1M18 21h1M14 22h1M18 22h1M13 23h1M17 23h1M13 24h1M16 24h1M13 25h3M12 26h1" />
<path stroke="rgba(83,83,83,0.8431372549019608)" d="M0 3h1M0 4h1M0 5h1M0 6h1M0 7h1M0 8h1M0 9h1M0 10h1M0 11h1M0 12h1M0 13h1M0 14h1M0 15h1M0 16h1M0 17h1M0 18h1M0 19h1M1 20h1M2 21h1M3 22h9M20 22h30M11 23h1M11 24h1M10 25h1M10 26h1M10 27h1M10 28h3" />
<rect stroke="rgba(0,0,0,0)" x="21.4" y="3" width="13.5" height="2.3" fill="#0e00ff"></rect>
<text stroke="rgba(0,0,0,0)" font-family="Lo-Res12Bold" font-size="2.5" textAnchor="middle" x="19" y="5">I'M </text>
<text id="svgName" fill="#ffffff" stroke="rgba(0,0,0,0)" font-family="Lo-Res12Bold" font-size="2.5" textAnchor="middle" x="28.5" y="5">ERIC LEUNG.</text>
<text font-family="Lo-Res12Bold" font-size="2.5" x="6" y="8">IN NZ, MAKING STUFF + EATING STUFF. </text>
<text font-family="Lo-Res12Regular" font-size="2" x="10" y="11.5"> ALSO LOVE... JAMMING NINTENDO SWITCH,  </text>
<text font-family="Lo-Res12Regular" font-size="2" x="8" y="14"> ROADTRIPS, RUNNING, GUITAR AND EATING x2.  </text>
</svg>