<svg xmlns="http://www.w3.org/2000/svg" viewBox="0 -0.5 53 29" shape-rendering="crispEdges">
<metadata>Made with Pixels to Svg https://codepen.io/shshaw/pen/XbxvNj</metadata>
<path stroke="#ffffff" d="M3 0h48M2 1h2M50 1h2M1 2h2M4 2h46M51 2h2M1 3h1M3 3h48M52 3h1M1 4h1M3 4h2M24 4h5M31 4h3M37 4h6M46 4h5M52 4h1M1 5h1M3 5h2M6 5h4M11 5h2M14 5h4M24 5h4M29 5h2M32 5h5M39 5h2M43 5h3M48 5h3M52 5h1M1 6h1M3 6h2M6 6h2M9 6h1M11 6h2M14 6h2M17 6h1M24 6h3M28 6h1M31 6h1M33 6h6M41 6h10M52 6h1M1 7h1M3 7h2M6 7h4M11 7h2M14 7h3M24 7h3M28 7h1M31 7h1M33 7h1M37 7h6M46 7h5M52 7h1M1 8h1M3 8h2M6 8h2M9 8h1M11 8h2M14 8h2M17 8h1M24 8h4M29 8h2M32 8h5M39 8h2M43 8h3M48 8h3M52 8h1M1 9h1M3 9h2M24 9h5M31 9h8M41 9h10M52 9h1M1 10h1M3 10h48M52 10h1M1 11h1M3 11h48M52 11h1M1 12h1M3 12h48M52 12h1M1 13h1M3 13h2M31 13h20M52 13h1M1 14h1M3 14h48M52 14h1M1 15h1M3 15h48M52 15h1M1 16h1M3 16h48M52 16h1M1 17h1M3 17h2M31 17h20M52 17h1M1 18h1M3 18h46M52 18h1M1 19h1M3 19h42M49 19h2M52 19h1M1 20h1M3 20h40M46 20h5M52 20h1M1 21h1M3 21h2M31 21h12M46 21h4M51 21h2M1 22h1M3 22h40M46 22h4M51 22h1M1 23h1M3 23h41M47 23h2M50 23h2M1 24h1M3 24h41M47 24h2M50 24h1M1 25h2M4 25h41M49 25h2M2 26h2M48 26h2M3 27h46" />
<path stroke="#000000" d="M4 1h46M3 2h1M50 2h1M2 3h1M51 3h1M2 4h1M29 4h2M34 4h3M43 4h3M51 4h1M2 5h1M28 5h1M31 5h1M37 5h2M41 5h2M46 5h2M51 5h1M2 6h1M27 6h1M29 6h2M32 6h1M39 6h2M51 6h1M2 7h1M27 7h1M29 7h2M32 7h1M34 7h3M43 7h3M51 7h1M2 8h1M28 8h1M31 8h1M37 8h2M41 8h2M46 8h2M51 8h1M2 9h1M29 9h2M39 9h2M51 9h1M2 10h1M51 10h1M2 11h1M51 11h1M2 12h1M51 12h1M2 13h1M5 13h26M51 13h1M2 14h1M51 14h1M2 15h1M51 15h1M2 16h1M51 16h1M2 17h1M5 17h26M51 17h1M2 18h1M49 18h3M2 19h1M45 19h4M51 19h1M2 20h1M45 20h1M51 20h1M2 21h1M5 21h26M45 21h1M50 21h1M2 22h1M45 22h1M50 22h1M2 23h1M46 23h1M49 23h1M2 24h1M46 24h1M49 24h1M3 25h1M47 25h2M4 26h44" />
<path stroke="#6e6e6e" d="M0 3h1M0 4h1M0 5h1M0 6h1M0 7h1M0 8h1M0 9h1M0 10h1M0 11h1M0 12h1M0 13h1M0 14h1M0 15h1M0 16h1M0 17h1M0 18h1M0 19h1M0 20h1M43 20h2M0 21h1M43 21h2M0 22h1M43 22h2M0 23h1M44 23h2M0 24h1M44 24h2M0 25h1M45 25h2M1 26h1M2 27h1M3 28h45" />
<path stroke="#0e00ff" d="M5 4h19M5 5h1M10 5h1M13 5h1M18 5h6M5 6h1M8 6h1M10 6h1M13 6h1M16 6h1M18 6h6M5 7h1M10 7h1M13 7h1M17 7h7M5 8h1M8 8h1M10 8h1M13 8h1M16 8h1M18 8h6M5 9h19" />
<rect stroke="rgba(0,0,0,0)" x="5" y="14" width="26.3" height="2.3" fill="#0e00ff"></rect>
<text stroke="rgba(0,0,0,0)" font-family="Lo-Res12Regular" font-size="2" textAnchor="middle" x="8.8" y="12">TO ERIC,</text>
<a xlink:href="mailto:leung.eric24@gmail.com" target="_blank">
    <text id="svgEmail" fill="#ffffff" font-family="Lo-Res12Bold" font-size="2" x="5.3" y="16">leung.eric24@gmail.com</text>
</a>

<text font-family="Lo-Res12Regular" font-size="2" x="5.3" y="20">AOTEROA, NEW ZEALAND</text>

</svg>