<svg xmlns="http://www.w3.org/2000/svg" viewBox="0 -0.5 10 17" shape-rendering="crispEdges">
<metadata>Made with Pixels to Svg https://codepen.io/shshaw/pen/XbxvNj</metadata>
<path stroke="#ffffff" d="M4 0h3M4 1h1M6 1h1M3 2h2M6 2h2M3 3h1M5 3h1M7 3h1M2 4h2M5 4h1M7 4h2M2 5h1M4 5h1M6 5h1M8 5h1M1 6h2M4 6h1M6 6h1M8 6h2M1 7h1M3 7h2M6 7h2M9 7h1M1 8h1M3 8h5M9 8h1M1 9h1M3 9h2M6 9h2M9 9h1M1 10h2M4 10h3M8 10h2M1 11h1M9 11h1M1 12h2M8 12h2M2 13h1M4 13h1M8 13h1M2 14h1M4 14h1M8 14h1M2 15h7" />
<path stroke="#000000" d="M5 1h1M5 2h1M4 3h1M6 3h1M4 4h1M6 4h1M3 5h1M5 5h1M7 5h1M3 6h1M5 6h1M7 6h1M2 7h1M5 7h1M8 7h1M2 8h1M8 8h1M2 9h1M5 9h1M8 9h1M3 10h1M7 10h1M2 11h7M3 12h5M3 13h1M5 13h3M3 14h1M5 14h3" />
<path stroke="rgba(83,83,83,0.8431372549019608)" d="M0 7h1M0 8h1M0 9h1M0 10h1M0 11h1M0 12h1M0 13h2M1 14h1M1 15h1M1 16h7" />
</svg>