<svg xmlns="http://www.w3.org/2000/svg" viewBox="0 -0.5 38 5" shape-rendering="crispEdges">
<metadata>Made with Pixels to Svg https://codepen.io/shshaw/pen/XbxvNj</metadata>
<path d="M0 0h3M5 0h3M10 0h4M17 0h2M20 0h4M25 0h4M30 0h4M35 0h3M0 1h2M3 1h1M5 1h2M8 1h1M10 1h2M13 1h1M17 1h2M20 1h2M25 1h2M31 1h2M35 1h2M0 2h2M3 2h1M5 2h3M10 2h2M13 2h1M17 2h2M20 2h4M25 2h2M31 2h2M35 2h3M0 3h4M5 3h2M8 3h1M10 3h2M13 3h1M15 3h1M17 3h2M20 3h2M25 3h2M31 3h2M36 3h2M0 4h2M5 4h2M8 4h1M10 4h4M15 4h4M20 4h4M25 4h4M31 4h2M35 4h3" />
</svg>