<svg xmlns="http://www.w3.org/2000/svg" viewBox="0 -0.5 42 29" shape-rendering="crispEdges">
<metadata>Made with Pixels to Svg https://codepen.io/shshaw/pen/XbxvNj</metadata>
<path stroke="#ffffff" d="M3 0h18M22 0h18M2 1h2M20 1h3M39 1h2M1 2h2M4 2h16M21 2h1M26 2h13M40 2h2M1 3h1M4 3h17M22 3h1M26 3h13M41 3h1M1 4h1M4 4h17M22 4h1M26 4h13M41 4h1M1 5h1M4 5h17M22 5h1M26 5h13M41 5h1M1 6h1M4 6h17M22 6h1M24 6h1M26 6h13M41 6h1M1 7h1M4 7h17M22 7h17M41 7h1M1 8h1M4 8h17M22 8h17M41 8h1M1 9h1M4 9h17M22 9h17M41 9h1M1 10h1M4 10h17M22 10h17M41 10h1M1 11h1M4 11h17M22 11h17M41 11h1M1 12h1M4 12h17M22 12h17M41 12h1M1 13h1M4 13h17M22 13h17M41 13h1M1 14h1M4 14h17M22 14h17M41 14h1M1 15h1M4 15h17M22 15h17M41 15h1M1 16h1M4 16h17M22 16h17M41 16h1M1 17h1M4 17h17M22 17h17M41 17h1M1 18h1M4 18h17M22 18h17M41 18h1M1 19h1M4 19h17M22 19h17M41 19h1M1 20h1M4 20h17M22 20h17M41 20h1M1 21h1M4 21h17M22 21h17M41 21h1M1 22h1M4 22h17M22 22h17M41 22h1M1 23h1M20 23h1M22 23h1M41 23h1M1 24h1M41 24h1M1 25h2M40 25h2M2 26h18M23 26h18M19 27h5" />
<path stroke="#000000" d="M4 1h16M26 1h13M3 2h1M20 2h1M22 2h1M39 2h1M2 3h1M21 3h1M40 3h1M2 4h1M40 4h1M2 5h1M40 5h1M2 6h1M40 6h1M2 7h1M40 7h1M2 8h1M40 8h1M2 9h1M40 9h1M2 10h1M40 10h1M2 11h1M40 11h1M2 12h1M40 12h1M2 13h1M40 13h1M2 14h1M40 14h1M2 15h1M40 15h1M2 16h1M40 16h1M2 17h1M40 17h1M2 18h1M40 18h1M2 19h1M40 19h1M2 20h1M40 20h1M2 21h1M40 21h1M2 22h1M40 22h1M2 23h1M4 23h16M23 23h16M40 23h1M2 24h19M22 24h19M3 25h37M20 26h3" />
<path stroke="#3390ff" d="M23 1h3M23 2h3M23 3h3M23 4h3M23 5h3M23 6h1M25 6h1" />
<path stroke="rgba(83,83,83,0.8431372549019608)" d="M0 3h1M0 4h1M0 5h1M0 6h1M0 7h1M0 8h1M0 9h1M0 10h1M0 11h1M0 12h1M0 13h1M0 14h1M0 15h1M0 16h1M0 17h1M0 18h1M0 19h1M0 20h1M0 21h1M0 22h1M0 23h1M0 24h1M0 25h1M0 26h2M1 27h18M24 27h17M18 28h5" />
<path stroke="#e9e9e9" d="M3 3h1M39 3h1M3 4h1M21 4h1M39 4h1M3 5h1M21 5h1M39 5h1M3 6h1M21 6h1M39 6h1M3 7h1M21 7h1M39 7h1M3 8h1M21 8h1M39 8h1M3 9h1M21 9h1M39 9h1M3 10h1M21 10h1M39 10h1M3 11h1M21 11h1M39 11h1M3 12h1M21 12h1M39 12h1M3 13h1M21 13h1M39 13h1M3 14h1M21 14h1M39 14h1M3 15h1M21 15h1M39 15h1M3 16h1M21 16h1M39 16h1M3 17h1M21 17h1M39 17h1M3 18h1M21 18h1M39 18h1M3 19h1M21 19h1M39 19h1M3 20h1M21 20h1M39 20h1M3 21h1M21 21h1M39 21h1M3 22h1M21 22h1M39 22h1M3 23h1M21 23h1M39 23h1M21 24h1" />

<text id="projectText" stroke="rgba(0,0,0,0)" font-family="Lo-Res12Bold" font-size="1.5" textAnchor="middle" x="11.7" y="3.5">WORK</text>
<text id="projectText"  stroke="rgba(0,0,0,0)" font-family="Lo-Res12Bold" font-size="1.5" textAnchor="middle" x="31.5" y="3.5">PROJECTS</text>

<a xlink:href="https://www.ecoportal.com/" target="_blank">
<svg id="EP" xmlns="http://www.w3.org/2000/svg"  width="12%" viewBox="0 -0.5 32 31" x="6" y="-7.5" shape-rendering="crispEdges">
<rect fill="rgba(0,0,0,0)" width="100%"/>
<metadata>Made with Pixels to Svg https://codepen.io/shshaw/pen/XbxvNj</metadata>
<path stroke="#50b28c" d="M12 0h1M30 20h1" />
<path stroke="#4fb18d" d="M13 0h1M14 1h1M15 2h1" />
<path stroke="#4db18f" d="M14 0h1M15 1h1M16 2h1M17 3h1" />
<path stroke="#4bb190" d="M15 0h1" />
<path stroke="#4bb091" d="M16 0h1M17 1h1M18 2h1M28 13h1M30 16h1M31 17h1" />
<path stroke="#48b093" d="M17 0h1M18 1h1M19 2h1M21 4h1M28 12h1M29 13h1M30 14h1M31 15h1" />
<path stroke="#47b094" d="M18 0h1M19 1h1M22 4h1M23 5h1M24 6h1M25 7h1M27 10h1M29 12h1M30 13h1M31 14h1" />
<path stroke="#45af95" d="M19 0h1M30 12h1M31 13h1" />
<path stroke="rgba(87,180,131,0.8784313725490196)" d="M9 1h1M27 21h1" />
<path stroke="#54b387" d="M10 1h1M11 2h1M12 3h1M27 20h1M28 21h1M29 22h1" />
<path stroke="#52b289" d="M11 1h1M12 2h1M28 20h1M29 21h1" />
<path stroke="#51b28a" d="M12 1h1M13 2h1M14 3h1M29 20h1" />
<path stroke="#4fb28c" d="M13 1h1M14 2h1M28 17h1" />
<path stroke="#4bb090" d="M16 1h1M17 2h1M18 3h1M29 15h1" />
<path stroke="rgba(65,175,152,0.9411764705882353)" d="M22 1h1" />
<path stroke="#56b384" d="M9 2h1M10 4h1" />
<path stroke="#54b386" d="M10 2h1M11 3h1" />
<path stroke="#43af97" d="M22 2h1M23 3h1M24 4h1M25 5h1" />
<path stroke="#42af98" d="M23 2h1M24 3h1M25 4h1M29 9h1" />
<path stroke="#40ae9a" d="M24 2h1M25 3h1M26 4h1M27 5h1M28 6h1" />
<path stroke="#5bb57f" d="M6 3h1M7 4h1M8 5h1M25 24h1M26 25h1" />
<path stroke="rgba(88,175,135,0.12549019607843137)" d="M9 3h1" />
<path stroke="#56b385" d="M10 3h1" />
<path stroke="#52b389" d="M13 3h1" />
<path stroke="rgba(80,177,141,0.5019607843137255)" d="M15 3h2M28 15h1" />
<path stroke="rgba(72,175,148,0.6274509803921569)" d="M19 3h1" />
<path stroke="rgba(72,175,146,0.3764705882352941)" d="M21 3h1" />
<path stroke="#44af96" d="M22 3h1M23 4h1M24 5h1M25 6h1M31 12h1" />
<path stroke="#5db57c" d="M5 4h1M6 5h1M7 6h1M25 26h1" />
<path stroke="#5db57d" d="M6 4h1M24 24h1M25 25h1M26 26h1" />
<path stroke="#60b679" d="M4 5h1M5 6h1" />
<path stroke="#5eb67a" d="M5 5h1M6 6h1M23 25h1M24 26h1M25 27h1" />
<path stroke="#5bb57d" d="M7 5h1" />
<path stroke="rgba(96,100,98,0.4392156862745098)" d="M13 5h1M22 23h1" />
<path stroke="#606461" d="M14 5h4M12 6h6M20 6h1M12 7h6M20 7h2M8 8h2M13 8h5M20 8h4M7 9h4M19 9h6M7 10h4M21 10h4M6 11h4M22 11h3M6 12h4M7 13h2M25 13h1M23 14h3M5 15h4M23 15h4M6 16h3M23 16h3M6 17h3M23 17h3M6 18h4M23 18h3M6 19h4M24 19h2M7 20h2M21 20h1M11 21h2M19 21h5M10 22h6M18 22h6M10 23h6M18 23h4M11 24h5M18 24h3M14 25h2" />
<path stroke="rgba(96,100,98,0.5019607843137255)" d="M18 5h1M6 13h1" />
<path stroke="#40af99" d="M26 5h1M27 6h1M28 7h1M29 8h1M30 9h1" />
<path stroke="#62b675" d="M3 6h1M21 26h1M22 27h1M23 28h1" />
<path stroke="#60b677" d="M4 6h1M5 7h1M22 26h1M23 27h1" />
<path stroke="rgba(96,101,97,0.8156862745098039)" d="M11 6h1M9 7h1M10 8h1M7 21h1" />
<path stroke="rgba(96,101,98,0.3764705882352941)" d="M18 6h1M19 8h1M9 20h1" />
<path stroke="#42af97" d="M26 6h1M27 7h1M28 8h1" />
<path stroke="rgba(98,183,116,0.9411764705882353)" d="M2 7h1" />
<path stroke="#63b774" d="M3 7h1M4 8h1M22 28h1" />
<path stroke="#62b676" d="M4 7h1M5 8h1" />
<path stroke="#5eb679" d="M6 7h1" />
<path stroke="rgba(96,100,97,0.9411764705882353)" d="M22 7h1" />
<path stroke="#45af96" d="M26 7h1M27 8h1M28 9h1" />
<path stroke="#40ae9b" d="M29 7h1" />
<path stroke="#65b771" d="M2 8h1M3 9h1M4 10h1M20 27h1M21 28h1" />
<path stroke="#63b772" d="M3 8h1" />
<path stroke="#46b095" d="M26 8h1M27 9h1" />
<path stroke="#66b86e" d="M1 9h1M2 10h1M3 11h1M18 27h1" />
<path stroke="#66b86f" d="M2 9h1M3 10h1M19 28h1M20 29h1" />
<path stroke="#63b773" d="M4 9h1M21 27h1" />
<path stroke="#68b86c" d="M1 10h1" />
<path stroke="rgba(71,175,149,0.5647058823529412)" d="M28 10h1" />
<path stroke="rgba(112,191,96,0.06274509803921569)" d="M0 11h1M9 25h1" />
<path stroke="#68b96b" d="M1 11h1M18 29h1" />
<path stroke="#68b86d" d="M2 11h1M3 12h1M18 28h1" />
<path stroke="rgba(96,100,97,0.8784313725490196)" d="M25 11h1M22 18h1" />
<path stroke="rgba(64,175,154,0.18823529411764706)" d="M31 11h1" />
<path stroke="#6aba68" d="M0 12h1" />
<path stroke="#69b969" d="M1 12h1" />
<path stroke="#69b96b" d="M2 12h1" />
<path stroke="rgba(108,187,100,0.8784313725490196)" d="M0 14h1" />
<path stroke="rgba(104,183,104,0.12549019607843137)" d="M1 14h1" />
<path stroke="rgba(96,100,97,0.7529411764705882)" d="M26 14h1M26 16h1" />
<path stroke="rgba(74,177,143,0.7529411764705882)" d="M28 14h1" />
<path stroke="#49b092" d="M29 14h1M30 15h1M31 16h1" />
<path stroke="#6dbb63" d="M0 15h1M1 16h1M2 17h1M3 19h1M4 20h1M10 26h1M11 27h1M12 28h1M13 30h1" />
<path stroke="#6cba65" d="M1 15h1M2 16h1M12 27h1" />
<path stroke="#6aba66" d="M2 15h1" />
<path stroke="rgba(106,186,104,0.7529411764705882)" d="M3 15h1" />
<path stroke="#6dbb62" d="M0 16h1M1 17h1M2 18h1M10 27h1M11 28h1M12 29h1" />
<path stroke="#6aba67" d="M3 16h1M13 27h1M14 28h1M15 29h1M16 30h1" />
<path stroke="rgba(96,99,97,0.5647058823529412)" d="M5 16h1" />
<path stroke="rgba(80,178,139,0.8784313725490196)" d="M28 16h1" />
<path stroke="#4db190" d="M29 16h1M30 17h1M31 18h1" />
<path stroke="#6fbb60" d="M0 17h1M1 18h1M2 19h1M10 28h1M11 29h1" />
<path stroke="#6cba66" d="M3 17h1M13 28h1M14 29h1M15 30h1" />
<path stroke="#4fb18e" d="M29 17h1" />
<path stroke="#6fbc5f" d="M0 18h1M1 19h1M2 20h1M10 29h1" />
<path stroke="#6cbb64" d="M3 18h1M13 29h1M14 30h1" />
<path stroke="#50b28b" d="M28 18h1M29 19h1" />
<path stroke="#4fb28d" d="M29 18h1M30 19h1" />
<path stroke="#4db18e" d="M30 18h1" />
<path stroke="#52b28a" d="M28 19h1M30 21h1" />
<path stroke="rgba(72,175,143,0.12549019607843137)" d="M31 19h1" />
<path stroke="#70bc5d" d="M1 20h1M2 21h1M6 26h1M7 27h1M8 28h1" />
<path stroke="#6fbb61" d="M3 20h1M4 21h1M5 22h1" />
<path stroke="#72bd5b" d="M1 21h1M2 22h1M6 27h1" />
<path stroke="#6fbc60" d="M3 21h1M4 22h1M5 23h1" />
<path stroke="#70bc5e" d="M3 22h1M4 23h1M7 26h1M8 27h1M9 28h1" />
<path stroke="rgba(113,190,89,0.6274509803921569)" d="M2 23h1" />
<path stroke="#70bc5c" d="M3 23h1M4 24h1" />
<path stroke="rgba(96,99,96,0.3137254901960784)" d="M9 23h1" />
<path stroke="#5ab480" d="M25 23h1M26 24h1M27 25h1" />
<path stroke="#5ab481" d="M26 23h1" />
<path stroke="#71bd5b" d="M3 24h1" />
<path stroke="#58b482" d="M27 24h2" />
<path stroke="rgba(114,189,93,0.3764705882352941)" d="M6 25h1M9 29h1" />
<path stroke="#6fbb5f" d="M7 25h1M8 26h1M9 27h1" />
<path stroke="#6dbb61" d="M8 25h1M9 26h1" />
<path stroke="#5eb67c" d="M24 25h1" />
<path stroke="#60b678" d="M23 26h1M24 27h1" />
<path stroke="#6ab968" d="M14 27h1M15 28h1" />
<path stroke="#69b96a" d="M15 27h1" />
<path stroke="#65b770" d="M19 27h1M20 28h1M21 29h1" />
<path stroke="rgba(113,189,91,0.9411764705882353)" d="M7 28h1" />
<path stroke="rgba(93,182,122,0.9411764705882353)" d="M24 28h1" />
<path stroke="rgba(104,185,108,0.5019607843137255)" d="M16 29h1M18 30h1" />
<path stroke="#66b86d" d="M19 29h1" />
<path stroke="rgba(98,181,118,0.5019607843137255)" d="M22 29h1" />
<path stroke="rgba(110,188,96,0.8156862745098039)" d="M12 30h1" />
<path stroke="rgba(104,186,107,0.8784313725490196)" d="M19 30h1" />
</svg>
</a>

<a xlink:href="https://www.bigwildthought.co.uk/" target="_blank">
<svg id="EP" xmlns="http://www.w3.org/2000/svg" width="10%" viewBox="0 -0.5 35 43" x="13.5" y="-7.5" shape-rendering="crispEdges">
<metadata>Made with Pixels to Svg https://codepen.io/shshaw/pen/XbxvNj</metadata>
<rect fill="rgba(0,0,0,0)" width="100%"/>
<path  stroke="#1d1d1b" d="M0 0h35M0 1h1M34 1h1M0 2h1M34 2h1M0 3h1M34 3h1M0 4h1M34 4h1M0 5h1M34 5h1M0 6h1M34 6h1M0 7h1M34 7h1M0 8h1M34 8h1M0 9h1M34 9h1M0 10h1M34 10h1M0 11h1M34 11h1M0 12h1M34 12h1M0 13h1M34 13h1M0 14h1M34 14h1M0 15h1M34 15h1M0 16h1M34 16h1M0 17h1M34 17h1M0 18h1M34 18h1M0 19h1M34 19h1M0 20h1M34 20h1M0 21h1M34 21h1M0 22h1M34 22h1M0 23h1M34 23h1M0 24h1M34 24h1M0 25h1M34 25h1M0 26h1M34 26h1M0 27h1M34 27h1M0 28h1M34 28h1M0 29h1M34 29h1M0 30h1M34 30h1M0 31h1M34 31h1M0 32h1M34 32h1M0 33h1M34 33h1M0 34h1M34 34h1M0 35h1M34 35h1M0 36h1M34 36h1M0 37h1M34 37h1M0 38h1M34 38h1M0 39h1M34 39h1M0 40h1M34 40h1M0 41h1M34 41h1M0 42h35" />
<path stroke="#f0f0f0" d="M1 1h1M1 2h1M1 3h1M1 4h1M1 5h1M1 6h1M1 7h1M1 8h1M1 9h1M1 10h1M1 11h1M1 12h1M1 13h1M1 14h1M1 15h1M1 16h1M1 17h1M1 18h1M1 19h1M1 20h1M1 21h1M1 22h1M1 23h1M1 24h1M1 25h1M1 26h1M1 27h1M1 28h1M1 29h1M1 30h1M1 31h1M1 32h1M1 33h1M1 34h1M1 35h1M1 36h1M1 37h1M1 38h1M1 39h1M1 40h1" />
<path stroke="#ffffff" d="M2 1h32M33 2h1M23 3h2M33 3h1M4 4h4M13 4h3M17 4h2M22 4h1M25 4h1M33 4h1M15 5h1M33 5h1M10 6h1M15 6h1M33 6h1M10 7h1M15 7h1M33 7h1M15 8h1M20 8h1M33 8h1M11 9h1M15 9h1M21 9h1M33 9h1M11 10h1M15 10h1M21 10h1M33 10h1M15 11h1M21 11h1M33 11h1M15 12h1M21 12h1M30 12h1M33 12h1M11 13h1M15 13h1M21 13h1M30 13h1M33 13h1M10 14h1M15 14h1M20 14h1M30 14h1M33 14h1M15 15h1M30 15h1M33 15h1M10 16h1M15 16h1M30 16h1M33 16h1M15 17h1M21 17h1M27 17h1M30 17h1M33 17h1M21 18h2M30 18h1M33 18h1M4 19h4M13 19h5M24 19h1M26 19h1M33 19h1M33 20h1M3 21h1M16 21h3M26 21h3M33 21h1M33 22h1M4 23h1M17 23h1M33 23h1M17 24h1M33 24h1M17 25h1M33 25h1M13 26h1M17 26h1M33 26h1M17 27h1M33 27h1M7 28h1M17 28h1M33 28h1M17 29h1M33 29h1M17 30h1M33 30h1M33 31h1M24 32h1M33 32h1M3 33h31M3 34h31M7 35h1M9 35h1M11 35h1M15 35h1M17 35h1M19 35h1M23 35h1M25 35h1M27 35h1M31 35h3M7 36h1M9 36h1M11 36h1M13 36h1M15 36h1M17 36h1M19 36h1M21 36h3M25 36h1M27 36h2M30 36h4M6 37h2M11 37h1M13 37h1M15 37h1M17 37h1M19 37h1M21 37h1M23 37h1M27 37h2M30 37h4M6 38h2M9 38h1M11 38h1M13 38h1M15 38h1M17 38h1M19 38h1M21 38h1M23 38h1M25 38h1M27 38h2M30 38h4M6 39h2M9 39h1M11 39h2M15 39h2M19 39h1M23 39h1M25 39h1M27 39h2M30 39h4M33 40h1M2 41h32" />
<path stroke="#fefefe" d="M2 2h31M2 3h2M9 3h4M20 3h3M28 3h5M2 4h1M11 4h2M19 4h3M29 4h4M2 5h1M4 5h5M12 5h3M17 5h5M24 5h4M30 5h3M2 6h1M4 6h6M12 6h3M17 6h4M23 6h5M30 6h3M2 7h1M4 7h6M12 7h3M17 7h3M22 7h11M2 8h1M4 8h7M12 8h3M17 8h3M22 8h11M2 9h1M4 9h6M12 9h3M17 9h3M22 9h11M2 10h1M4 10h4M12 10h3M17 10h3M22 10h11M2 11h1M10 11h5M17 11h3M22 11h5M32 11h1M2 12h1M4 12h3M9 12h1M11 12h4M17 12h3M22 12h5M32 12h1M2 13h1M4 13h6M12 13h3M17 13h3M22 13h7M31 13h2M2 14h1M4 14h6M12 14h3M17 14h3M22 14h7M31 14h2M2 15h1M4 15h7M12 15h3M17 15h4M22 15h7M31 15h2M2 16h1M4 16h6M12 16h3M17 16h4M22 16h7M31 16h2M2 17h1M4 17h5M12 17h3M17 17h4M24 17h3M31 17h2M2 18h1M11 18h2M20 18h1M31 18h2M2 19h1M9 19h4M18 19h6M25 19h1M27 19h2M30 19h3M2 20h31M2 21h1M4 21h4M9 21h4M14 21h1M21 21h5M30 21h3M2 22h1M4 22h4M9 22h4M14 22h1M19 22h1M21 22h5M31 22h2M2 23h1M5 23h3M10 23h3M14 23h2M18 23h2M21 23h5M27 23h3M32 23h1M2 24h2M5 24h2M10 24h2M14 24h2M18 24h2M21 24h5M27 24h3M32 24h1M2 25h2M5 25h2M11 25h1M13 25h3M18 25h2M21 25h5M27 25h3M32 25h1M2 26h2M6 26h1M8 26h1M10 26h2M14 26h2M18 26h2M21 26h5M27 26h4M32 26h1M2 27h2M5 27h1M8 27h1M13 27h3M18 27h2M21 27h5M27 27h3M32 27h1M2 28h3M8 28h2M13 28h3M18 28h2M21 28h5M27 28h3M32 28h1M2 29h3M8 29h2M13 29h3M18 29h2M21 29h5M27 29h3M32 29h1M2 30h3M6 30h4M12 30h4M18 30h2M21 30h5M27 30h3M32 30h1M2 31h3M6 31h5M12 31h3M18 31h1M25 31h1M31 31h2M2 32h22M25 32h8M2 33h1M2 34h1M2 35h2M2 36h3M2 37h3M2 38h3M2 39h3M2 40h31" />
<path stroke="#434343" d="M4 3h4M13 3h7M25 3h3M3 4h1M9 4h1M16 4h1M24 4h1M28 4h1M3 5h1M16 5h1M23 5h1M29 5h1M3 6h1M11 6h1M16 6h1M21 6h2M3 7h1M11 7h1M16 7h1M21 7h1M3 8h1M11 8h1M16 8h1M21 8h1M3 9h1M10 9h1M16 9h1M20 9h1M3 10h1M9 10h1M16 10h1M20 10h1M3 11h1M16 11h1M20 11h1M27 11h5M3 12h1M16 12h1M20 12h1M29 12h1M3 13h1M16 13h1M20 13h1M29 13h1M3 14h1M11 14h1M16 14h1M21 14h1M29 14h1M3 15h1M11 15h1M16 15h1M21 15h1M29 15h1M3 16h1M11 16h1M16 16h1M21 16h1M29 16h1M3 17h1M16 17h1M22 17h1M29 17h1M3 18h7M13 18h7M23 18h6M3 22h1M8 22h1M13 22h1M15 22h3M20 22h1M26 22h4M3 23h1M8 23h1M13 23h1M16 23h1M20 23h1M26 23h1M30 23h1M7 24h3M13 24h1M16 24h1M20 24h1M26 24h1M31 24h1M4 25h1M7 25h1M9 25h1M12 25h1M16 25h1M20 25h1M26 25h1M31 25h1M4 26h1M7 26h1M9 26h1M12 26h1M16 26h1M20 26h1M26 26h1M31 26h1M4 27h1M7 27h1M9 27h2M12 27h1M16 27h1M20 27h1M26 27h1M31 27h1M5 28h2M10 28h2M16 28h1M20 28h1M26 28h1M31 28h1M5 29h2M10 29h2M16 29h1M20 29h1M26 29h1M31 29h1M5 30h1M11 30h1M16 30h1M20 30h1M26 30h1M30 30h1M5 31h1M11 31h1M15 31h3M21 31h4M26 31h4M4 35h3M8 35h1M10 35h1M12 35h2M16 35h1M18 35h1M20 35h3M24 35h1M26 35h1M28 35h2M5 36h1M8 36h1M10 36h1M12 36h1M14 36h1M16 36h1M18 36h1M20 36h1M24 36h1M26 36h1M29 36h1M5 37h1M8 37h3M12 37h1M14 37h1M16 37h1M18 37h1M20 37h1M22 37h1M24 37h3M29 37h1M5 38h1M8 38h1M10 38h1M12 38h1M14 38h1M16 38h1M18 38h1M20 38h1M22 38h1M24 38h1M26 38h1M29 38h1M5 39h1M8 39h1M10 39h1M13 39h1M17 39h1M20 39h2M24 39h1M26 39h1M29 39h1" />
<path stroke="#fafafa" d="M8 3h1M10 4h1M26 4h1M11 5h1M20 7h1M8 12h1M31 12h1M23 17h1M3 19h1M8 21h1M29 21h1M8 25h1M10 25h1M6 27h1M30 28h1M7 29h1M12 29h1M31 30h1M19 31h1" />
<path stroke="#3d3d3d" d="M8 4h1" />
<path stroke="#181818" d="M23 4h1" />
<path stroke="#101010" d="M27 4h1M28 5h1M10 12h1" />
<path stroke="#fdfdfd" d="M9 5h1M28 6h1M8 10h1M7 12h1M27 12h2M11 17h1M8 19h1M29 19h1M13 21h1M15 21h1M20 21h1M18 22h1M30 22h1M31 23h1M12 24h1M30 24h1M30 25h1M5 26h1M11 27h1M30 27h1M30 29h1M10 30h1" />
<path stroke="#1d1d1d" d="M10 5h1M22 5h1M4 11h6M10 17h1" />
<path stroke="#000000" d="M29 6h1M10 10h1" />
<path stroke="#383838" d="M10 13h1" />
<path stroke="#f3f3f3" d="M9 17h1M19 21h1M9 23h1M1 41h1" />
<path stroke="#727272" d="M28 17h1M30 35h1M18 39h1" />
<path stroke="#cbcbcb" d="M10 18h1M12 28h1M20 31h1M30 31h1M14 35h1M6 36h1M14 39h1M22 39h1" />
<path stroke="#8b8b8b" d="M29 18h1" />
<path stroke="#474747" d="M4 24h1" />
</svg>
</a>

<a xlink:href="https://quantiful.ai/" target="_blank">
<svg id="EP" xmlns="http://www.w3.org/2000/svg" width="12%" viewBox="0 -0.5 36 20" x="6" y="-1.5" shape-rendering="crispEdges">
<metadata>Made with Pixels to Svg https://codepen.io/shshaw/pen/XbxvNj</metadata>
<rect fill="rgba(0,0,0,0)" width="100%"/>
<path stroke="rgba(0,0,0,0.9372549019607843)" d="M7 0h1M0 12h1M26 16h1" />
<path stroke="#000000" d="M8 0h4M5 1h10M21 1h3M32 1h3M3 2h13M21 2h3M32 2h3M2 3h5M12 3h5M21 3h3M32 3h3M2 4h4M13 4h5M21 4h3M32 4h3M1 5h4M15 5h3M21 5h3M32 5h3M1 6h3M15 6h4M21 6h3M32 6h3M0 7h4M16 7h3M21 7h3M32 7h3M0 8h4M16 8h3M21 8h3M32 8h3M0 9h4M16 9h3M21 9h3M32 9h3M0 10h4M16 10h3M21 10h3M32 10h3M0 11h4M16 11h3M21 11h3M32 11h3M1 12h3M15 12h4M21 12h3M32 12h3M1 13h3M15 13h3M21 13h3M32 13h3M1 14h4M14 14h4M21 14h3M32 14h3M2 15h4M13 15h4M21 15h4M31 15h4M3 16h13M22 16h4M30 16h4M4 17h16M23 17h11M5 18h15M24 18h9M9 19h11M25 19h6" />
<path stroke="rgba(0,0,0,0.12549019607843137)" d="M4 1h1M18 13h1" />
<path stroke="rgba(0,0,0,0.25098039215686274)" d="M35 1h1M35 2h1M35 3h1M35 4h1M35 5h1M35 6h1M35 7h1M35 8h1M35 9h1M35 10h1M35 11h1M35 12h1" />
<path stroke="rgba(0,0,0,0.8745098039215686)" d="M7 3h1M15 7h1" />
<path stroke="rgba(0,0,0,0.3137254901960784)" d="M11 3h1" />
<path stroke="rgba(0,0,0,0.18823529411764706)" d="M1 4h1M4 13h1M23 18h1" />
<path stroke="rgba(0,0,0,0.8117647058823529)" d="M14 5h1" />
<path stroke="rgba(0,0,0,0.5019607843137255)" d="M24 14h1" />
<path stroke="rgba(0,0,0,0.6235294117647059)" d="M2 16h1M22 17h1" />
<path stroke="rgba(0,0,0,0.5607843137254902)" d="M34 16h1" />
<path stroke="rgba(0,0,0,0.06274509803921569)" d="M3 17h1" />
<path stroke="rgba(0,0,0,0.7490196078431373)" d="M20 17h1M20 18h1M20 19h1" />
<path stroke="rgba(0,0,0,0.4392156862745098)" d="M8 19h1" />
</svg>
</a>

<a xlink:href="./">
<svg id="EP" xmlns="http://www.w3.org/2000/svg" width="11%" viewBox="0 -0.5 31 31" x="13.5" y="-1.5" shape-rendering="crispEdges">
<metadata>Made with Pixels to Svg https://codepen.io/shshaw/pen/XbxvNj</metadata>
<rect fill="rgba(0,0,0,0)" width="100%"/>
<path stroke="#00c5e8" d="M3 0h1M7 0h1M3 1h5M2 2h7M0 3h10M1 4h9M0 5h11M1 6h10M1 7h9M1 8h9M2 9h7M4 10h3" />
<path stroke="rgba(0,197,233,0.9215686274509803)" d="M4 0h1" />
<path stroke="rgba(0,197,232,0.996078431372549)" d="M5 0h1" />
<path stroke="rgba(0,197,232,0.9294117647058824)" d="M6 0h1" />
<path stroke="#ffbe00" d="M21 0h1M24 0h2M21 1h4M19 2h8M19 3h10M18 4h11M18 5h10M18 6h10M18 7h11M19 8h9M20 9h7M21 10h4" />
<path stroke="rgba(255,189,0,0.8941176470588236)" d="M22 0h1" />
<path stroke="rgba(255,190,0,0.8980392156862745)" d="M23 0h1" />
<path stroke="#00c7eb" d="M2 1h1" />
<path stroke="#00c7ea" d="M8 1h1M3 10h1M7 10h1" />
<path stroke="rgba(255,166,0,0.0784313725490196)" d="M19 1h1" />
<path stroke="#ffc000" d="M20 1h1M25 10h1" />
<path stroke="#ffbf00" d="M25 1h1M18 3h1" />
<path stroke="rgba(255,189,0,0.6549019607843137)" d="M26 1h1" />
<path stroke="#00ccf1" d="M1 2h1" />
<path stroke="#00c9ed" d="M9 2h1" />
<path stroke="rgba(255,184,0,0.21176470588235294)" d="M18 2h1" />
<path stroke="rgba(255,189,0,0.8156862745098039)" d="M27 2h1" />
<path stroke="rgba(0,198,231,0.8352941176470589)" d="M10 3h1" />
<path stroke="#00c8eb" d="M0 4h1M10 7h1" />
<path stroke="#00c6e9" d="M10 4h1M0 6h1" />
<path stroke="rgba(255,192,0,0.9764705882352941)" d="M28 5h1" />
<path stroke="rgba(255,190,0,0.9764705882352941)" d="M28 6h1" />
<path stroke="rgba(0,197,233,0.9764705882352941)" d="M0 7h1" />
<path stroke="#000000" d="M12 9h5M11 10h7M10 11h9M9 12h11M9 13h11M9 14h11M9 15h11M9 16h11M10 17h9M11 18h7M12 19h5" />
<path stroke="rgba(236,46,46,0.9686274509803922)" d="M3 18h1" />
<path stroke="#ee3030" d="M4 18h1M6 18h1M0 22h1M0 24h1" />
<path stroke="#ed2f2f" d="M5 18h1M1 20h1M4 28h1" />
<path stroke="rgba(236,45,45,0.8588235294117647)" d="M7 18h1" />
<path stroke="rgba(27,185,33,0.9686274509803922)" d="M21 18h1" />
<path stroke="#1cbb22" d="M22 18h1" />
<path stroke="#1cbb21" d="M23 18h2M27 20h1M24 28h1" />
<path stroke="rgba(26,184,30,0.7215686274509804)" d="M25 18h1" />
<path stroke="#eb2f2f" d="M2 19h6M2 20h8M1 21h9M1 22h10M0 23h11M1 24h10M1 25h9M2 26h8M2 27h7M5 28h1" />
<path stroke="#ec2f2f" d="M8 19h1M1 26h1M6 28h1" />
<path stroke="#1cb921" d="M20 19h6M19 20h8M19 21h10M18 22h10M18 23h10M18 24h10M19 25h10M19 26h9M20 27h6M23 28h1" />
<path stroke="#1dbc22" d="M26 19h1" />
<path stroke="rgba(235,45,45,0.8627450980392157)" d="M0 21h1" />
<path stroke="rgba(235,46,46,0.9882352941176471)" d="M10 21h1" />
<path stroke="#1cba21" d="M18 21h1M28 23h1M28 24h1M18 25h1M26 27h1M22 28h1" />
<path stroke="rgba(28,185,33,0.9647058823529412)" d="M28 22h1" />
<path stroke="rgba(235,46,46,0.8941176470588236)" d="M0 25h1" />
<path stroke="#ef3030" d="M10 25h1" />
<path stroke="rgba(12,172,18,0.16862745098039217)" d="M27 27h1" />
<path stroke="rgba(235,46,46,0.984313725490196)" d="M3 28h1M7 28h1" />
<path stroke="rgba(28,185,33,0.9882352941176471)" d="M21 28h1" />
<path stroke="rgba(27,185,32,0.9568627450980393)" d="M25 28h1" />
</svg>
</a>

<a xlink:href="https://ownmydata.co.nz/" target="_blank">
<svg id="EP" xmlns="http://www.w3.org/2000/svg" width="28%" x="6.9" y="4.3" viewBox="0 -0.5 64 24" shape-rendering="crispEdges">
<metadata>Made with Pixels to Svg https://codepen.io/shshaw/pen/XbxvNj</metadata>
<rect fill="rgba(0,0,0,0)" width="30%"/>
<path stroke="#000000" d="M7 0h4M4 1h4M10 1h4M0 2h5M13 2h5M0 3h1M0 4h1M7 4h4M0 5h1M6 5h2M10 5h2M0 6h1M5 6h2M11 6h2M0 7h1M5 7h1M12 7h1M0 8h1M5 8h1M12 8h1M0 9h1M5 9h1M12 9h1M0 10h1M5 10h2M11 10h2M0 11h1M6 11h2M10 11h2M0 12h1M7 12h4M0 13h1M4 13h4M10 13h4M0 14h1M3 14h2M13 14h2M0 15h1M3 15h1M14 15h1M17 15h1M0 16h1M3 16h1M14 16h1M17 16h1M0 17h2M3 17h12M16 17h2M1 18h1M16 18h1M1 19h2M15 19h2M2 20h2M14 20h2M3 21h2M13 21h2M4 22h3M11 22h3M6 23h6" />
<path stroke="#799dd3" d="M8 13h2M5 14h8M4 15h10M4 16h10" />
<path stroke="rgba(255,255,255,0.25098039215686274)" d="M5 21h1" />
<path stroke="rgba(255,255,255,0.06274509803921569)" d="M12 21h1" />
</svg>
</a>



<a xlink:href="https://github.com/timovv/LifeOfWilbur" target="_blank">
<svg id="EP" xmlns="http://www.w3.org/2000/svg" width="19%" viewBox="0 -0.5 34 11" x="23.5" y="-6.5" shape-rendering="crispEdges">
<metadata>Made with Pixels to Svg https://codepen.io/shshaw/pen/XbxvNj</metadata>
<rect fill="rgba(0,0,0,0)" width="100%"/>
<path stroke="#000000" d="M0 0h2M4 0h2M7 0h3M11 0h3M18 0h2M22 0h3M0 1h2M4 1h2M7 1h2M11 1h2M17 1h2M20 1h1M22 1h2M0 2h2M4 2h2M7 2h3M11 2h3M17 2h2M20 2h1M22 2h3M0 3h2M4 3h2M7 3h2M11 3h2M17 3h2M20 3h1M22 3h2M0 4h3M4 4h2M7 4h2M11 4h3M18 4h2M22 4h2M0 6h2M5 6h1M7 6h2M10 6h2M14 6h3M19 6h2M22 6h1M24 6h3M0 7h2M5 7h1M7 7h2M10 7h2M14 7h2M17 7h1M19 7h2M22 7h1M24 7h2M27 7h1M0 8h2M5 8h1M7 8h2M10 8h2M14 8h4M19 8h2M22 8h1M24 8h3M0 9h2M3 9h1M5 9h1M7 9h2M10 9h2M14 9h2M17 9h1M19 9h2M22 9h1M24 9h2M27 9h1M1 10h4M7 10h2M10 10h3M14 10h4M19 10h4M24 10h2M27 10h1" />
<path stroke="#fb7b7b" d="M29 6h5M29 7h5M29 8h5M29 9h5M29 10h1" />
</svg>
</a>

<a xlink:href="https://github.com/itsercleung/itsercleung.github.io" target="_blank">
<svg id="EP" xmlns="http://www.w3.org/2000/svg" width="12%" viewBox="0 -0.5 16 17" x="32.6" y="-7" shape-rendering="crispEdges">
<metadata>Made with Pixels to Svg https://codepen.io/shshaw/pen/XbxvNj</metadata>
<rect fill="rgba(0,0,0,0)" width="100%"/>
<path stroke="#ffffff" d="M3 0h3M3 1h1M5 1h9M3 2h2M13 2h2M2 3h2M14 3h2M2 4h1M15 4h1M2 5h1M15 5h1M2 6h1M8 6h5M15 6h1M1 7h2M6 7h8M15 7h1M1 8h1M5 8h8M14 8h2M1 9h1M3 9h1M5 9h2M9 9h2M12 9h1M14 9h2M1 10h1M3 10h8M12 10h4M1 11h2M4 11h5M10 11h4M15 11h1M2 12h2M5 12h5M12 12h2M15 12h1M3 13h2M6 13h7M14 13h2M4 14h2M13 14h2M5 15h9" />
<path stroke="rgba(83,83,83,0.8431372549019608)" d="M2 1h1M2 2h1M1 3h1M1 4h1M1 5h1M1 6h1M0 7h1M0 8h1M0 9h1M0 10h1M0 11h1M1 12h1M2 13h1M3 14h1M4 15h1M5 16h8" />
<path stroke="#000000" d="M4 1h1M5 2h8M4 3h10M3 4h12M3 5h12M3 6h5M13 6h2M3 7h3M14 7h1M2 8h3M13 8h1M2 9h1M4 9h1M7 9h2M11 9h1M13 9h1M2 10h1M11 10h1M3 11h1M9 11h1M14 11h1M4 12h1M10 12h2M14 12h1M5 13h1M13 13h1M6 14h7" />
</svg>
</a>

<a xlink:href="https://github.com/harmanlamba/GanttBustersTaskScheduler" target="_blank">
<svg  id="EP" xmlns="http://www.w3.org/2000/svg" width="16%" x="23.8" y="-1.3" viewBox="0 -0.5 27 11" shape-rendering="crispEdges">
<metadata>Made with Pixels to Svg https://codepen.io/shshaw/pen/XbxvNj</metadata>
<rect fill="rgba(0,0,0,0)" width="100%"/>
<path stroke="#000000" d="M1 0h2M10 0h1M13 0h1M15 0h3M19 0h3M0 1h1M10 1h2M13 1h1M16 1h1M20 1h1M0 2h1M2 2h1M10 2h1M12 2h2M16 2h1M20 2h1M0 3h1M2 3h1M10 3h1M13 3h1M16 3h1M20 3h1M0 4h3M10 4h1M13 4h1M16 4h1M20 4h1M0 6h2M4 6h1M6 6h1M9 6h2M12 6h3M17 6h2M20 6h2M25 6h2M0 7h1M2 7h1M4 7h1M6 7h1M8 7h1M13 7h1M16 7h1M20 7h1M22 7h1M24 7h1M0 8h2M4 8h1M6 8h1M8 8h3M13 8h1M16 8h3M20 8h2M24 8h3M0 9h1M2 9h1M4 9h1M6 9h1M10 9h1M13 9h1M16 9h1M20 9h1M22 9h1M26 9h1M0 10h3M4 10h3M8 10h2M13 10h1M16 10h3M20 10h1M22 10h1M24 10h2" />
<path stroke="#3390ff" d="M5 0h3M4 1h1M6 1h1M8 1h1M4 2h5M4 3h5M4 4h1M6 4h1M8 4h1" />
</svg>
</a>

<a xlink:href="https://github.com/itsercleung/Find-Something" target="_blank">
<svg id="EP" xmlns="http://www.w3.org/2000/svg" width="12%" x="32.6" y="-1.3" viewBox="0 -0.5 27 17" shape-rendering="crispEdges">
<metadata>Made with Pixels to Svg https://codepen.io/shshaw/pen/XbxvNj</metadata>
<rect fill="rgba(0,0,0,0)" width="100%"/>
<path stroke="#5e5e5e" d="M1 0h25M0 1h1M26 1h1M0 2h1M26 2h1M0 3h1M26 3h1M0 4h1M26 4h1M0 5h1M26 5h1M0 6h1M26 6h1M0 7h1M26 7h1M0 8h1M26 8h1M0 9h1M26 9h1M0 10h1M26 10h1M0 11h1M26 11h1M0 12h1M26 12h1M0 13h1M26 13h1M0 14h1M26 14h1M0 15h1M26 15h1M1 16h25" />
<path stroke="#2c2c2c" d="M1 1h25M1 2h25M1 3h25M1 4h25M1 5h1M5 5h4M18 5h4M25 5h1M1 6h1M4 6h3M8 6h1M18 6h1M20 6h3M25 6h1M1 7h1M4 7h2M8 7h1M18 7h1M21 7h2M25 7h1M1 8h1M4 8h2M8 8h1M18 8h1M21 8h2M25 8h1M1 9h1M4 9h2M8 9h1M18 9h1M21 9h2M25 9h1M1 10h1M4 10h2M8 10h1M18 10h1M20 10h3M25 10h1M1 11h2M7 11h2M18 11h2M24 11h2M1 12h23M25 12h1M1 13h25M1 14h23M25 14h1M1 15h25" />
<path stroke="#3b3b3b" d="M2 5h1M24 5h1M6 10h1" />
<path stroke="#dedede" d="M3 5h2M22 5h2M2 6h2M7 6h1M19 6h1M23 6h2M2 7h2M6 7h2M19 7h2M23 7h2M2 8h2M6 8h2M19 8h2M23 8h2M2 9h2M6 9h2M19 9h2M23 9h2M2 10h2M7 10h1M19 10h1M23 10h2M3 11h2M22 11h2" />
<path stroke="#e73d39" d="M9 5h1M17 5h1" />
<path stroke="#e94340" d="M10 5h1" />
<path stroke="#eb4844" d="M11 5h1M15 5h1" />
<path stroke="#ed4c49" d="M12 5h1M14 5h1" />
<path stroke="#ef514e" d="M13 5h1" />
<path stroke="#e9423f" d="M16 5h1" />
<path stroke="#e63b37" d="M9 6h1M17 6h1" />
<path stroke="#e8413d" d="M10 6h1M16 6h1" />
<path stroke="#ea4643" d="M11 6h1M15 6h1" />
<path stroke="#eb4946" d="M12 6h1M14 6h1" />
<path stroke="#ec4b48" d="M13 6h1" />
<path stroke="#f2f2f2" d="M9 7h1M17 7h1M9 8h1M10 9h1M16 9h1" />
<path stroke="#f4f4f4" d="M10 7h1M16 7h1M11 9h2M14 9h1" />
<path stroke="#f6f6f6" d="M11 7h1M15 7h1" />
<path stroke="#f7f7f7" d="M12 7h3" />
<path stroke="#bdbdbd" d="M10 8h7M10 10h7" />
<path stroke="#f1f1f1" d="M17 8h1M9 9h1M17 9h1M12 11h3" />
<path stroke="#f5f5f5" d="M13 9h1" />
<path stroke="#f3f3f3" d="M15 9h1" />
<path stroke="#f0f0f0" d="M9 10h1M11 11h1M15 11h1" />
<path stroke="#efefef" d="M17 10h1M10 11h1M16 11h1" />
<path stroke="#2b2b2b" d="M5 11h1M21 11h1" />
<path stroke="#2d2d2d" d="M6 11h1M20 11h1M24 12h1M24 14h1" />
<path stroke="#eeeeee" d="M9 11h1M17 11h1" />
</svg>
</a>

<a xlink:href="https://github.com/itsercleung/Wow-Cubes" target="_blank">
<svg id="EP" xmlns="http://www.w3.org/2000/svg" width="9%" x="25" y="4.2" viewBox="0 -0.5 22 29" shape-rendering="crispEdges">
<metadata>Made with Pixels to Svg https://codepen.io/shshaw/pen/XbxvNj</metadata>
<path stroke="#000000" d="M12 0h9M11 1h11M11 2h1M20 2h2M6 3h6M13 3h8M3 4h4M8 4h4M13 4h1M1 5h3M13 5h3M1 6h1M14 6h5M1 7h1M17 7h2M1 8h1M17 8h2M1 9h1M17 9h2M1 10h1M17 10h2M1 11h1M17 11h2M1 12h1M17 12h2M1 13h1M17 13h2M1 14h1M17 14h2M1 15h1M17 15h2M1 16h1M17 16h2M1 17h1M17 17h2M1 18h1M17 18h2M1 19h1M17 19h2M1 20h1M17 20h2M1 21h1M17 21h2M1 22h1M17 22h2M1 23h1M17 23h2M1 24h2M17 24h2M1 25h5M17 25h2M4 26h5M14 26h5M7 27h9M10 28h3" />
<path stroke="rgba(0,0,0,0.050980392156862744)" d="M7 2h1M4 3h1M1 4h1" />
<path stroke="rgba(0,0,0,0.7686274509803922)" d="M10 2h1" />
<path stroke="#8e6700" d="M12 2h1" />
<path stroke="#ffbb00" d="M13 2h1M12 4h1" />
<path stroke="#fab500" d="M14 2h5" />
<path stroke="#f9b500" d="M19 2h1" />
<path stroke="rgba(0,0,0,0.9333333333333333)" d="M5 3h1M2 4h1" />
<path stroke="#ffb900" d="M12 3h1M11 6h1M11 7h1" />
<path stroke="rgba(0,0,0,0.3568627450980392)" d="M21 3h1" />
<path stroke="#101510" d="M7 4h1" />
<path stroke="rgba(0,0,0,0.984313725490196)" d="M14 4h1" />
<path stroke="rgba(0,0,0,0.6627450980392157)" d="M15 4h4" />
<path stroke="rgba(0,0,0,0.6666666666666666)" d="M19 4h1" />
<path stroke="rgba(0,0,0,0.058823529411764705)" d="M20 4h1" />
<path stroke="rgba(0,0,0,0.9411764705882353)" d="M0 5h1M0 6h1M0 7h1M0 8h1M0 9h1M0 10h1M0 11h1M0 12h1M0 13h1M0 14h1M0 15h1M0 16h1M0 17h1M0 18h1M0 19h1M0 20h1M0 21h1M0 22h1M0 23h1M0 24h1" />
<path stroke="#0c140c" d="M4 5h1" />
<path stroke="#76d472" d="M5 5h1" />
<path stroke="#a3e3a2" d="M6 5h1M9 6h1" />
<path stroke="#aae5aa" d="M7 5h2M4 6h2M10 6h1M7 7h3M14 7h2M12 8h1" />
<path stroke="#abe6ab" d="M9 5h1" />
<path stroke="#7ba67b" d="M10 5h1M13 6h1" />
<path stroke="#ac7d00" d="M11 5h1" />
<path stroke="#503a00" d="M12 5h1" />
<path stroke="rgba(0,0,0,0.6235294117647059)" d="M16 5h1" />
<path stroke="#91dc8f" d="M2 6h1" />
<path stroke="#abe5ab" d="M3 6h1" />
<path stroke="#a7e4a7" d="M6 6h1" />
<path stroke="#7cdc78" d="M7 6h1" />
<path stroke="#79db75" d="M8 6h1M3 7h3M3 8h6M3 9h8M3 10h8M3 11h1M6 11h5M3 12h1M8 12h3M3 13h1M9 13h2M3 14h1M10 14h1M3 15h2M10 15h1M3 16h2M10 16h1M3 17h2M9 17h2M3 18h4M8 18h3M3 19h8M3 20h8M6 21h5M9 22h2" />
<path stroke="#aae7ac" d="M12 6h1" />
<path stroke="#7bdf77" d="M2 7h1M2 8h1M2 9h1M2 10h1M2 11h1M2 12h1M2 13h1M2 14h1M2 15h1M2 16h1M2 17h1M2 18h1M2 19h1" />
<path stroke="#a1e3a0" d="M6 7h1M9 8h1" />
<path stroke="#9de39f" d="M10 7h1" />
<path stroke="#7edc7b" d="M12 7h1" />
<path stroke="#a9e5a9" d="M13 7h1" />
<path stroke="#97df97" d="M16 7h1" />
<path stroke="#10c507" d="M10 8h1" />
<path stroke="#25c50a" d="M11 8h1" />
<path stroke="#89d988" d="M13 8h1" />
<path stroke="#14a20f" d="M14 8h1" />
<path stroke="#13a10e" d="M15 8h1M12 9h4M13 10h2M5 12h1M15 22h2M12 23h5M12 24h5M12 25h3" />
<path stroke="#15b70d" d="M16 8h1" />
<path stroke="#57d351" d="M11 9h1" />
<path stroke="#16c60c" d="M16 9h1M12 10h1M15 10h2M12 11h2M15 11h2M12 12h5M12 13h5M12 14h5M12 15h5M12 16h5M12 17h5M12 18h5M12 19h5M12 20h5M3 21h1M12 21h5M3 22h5M12 22h2M3 23h8M5 24h6M8 25h3" />
<path stroke="#58d452" d="M11 10h1M11 11h1M11 12h1M11 13h1M11 14h1M11 15h1M11 16h1M11 17h1M11 18h1M11 19h1M11 20h1M11 21h1M11 22h1" />
<path stroke="#20a81b" d="M4 11h1" />
<path stroke="#77da73" d="M5 11h1" />
<path stroke="#14ae0d" d="M14 11h1" />
<path stroke="#7adb75" d="M4 12h1" />
<path stroke="#32a928" d="M6 12h1" />
<path stroke="#79dc75" d="M7 12h1" />
<path stroke="#f03917" d="M4 13h1" />
<path stroke="#f03a17" d="M5 13h1M5 14h4M5 15h4M6 16h3M7 17h1" />
<path stroke="#dc4218" d="M6 13h1" />
<path stroke="#ea421c" d="M7 13h1" />
<path stroke="#8bc266" d="M8 13h1" />
<path stroke="#f13816" d="M4 14h1" />
<path stroke="#89c669" d="M9 14h1" />
<path stroke="#ec3f1a" d="M9 15h1" />
<path stroke="#f13916" d="M5 16h1" />
<path stroke="#7ada75" d="M9 16h1" />
<path stroke="#7fd270" d="M5 17h1" />
<path stroke="#f23816" d="M6 17h1" />
<path stroke="#f13917" d="M8 17h1" />
<path stroke="#78dd76" d="M7 18h1" />
<path stroke="#70dc6b" d="M2 20h1" />
<path stroke="#16c90c" d="M2 21h1M2 22h1M2 23h1M4 24h1M7 25h1M10 26h1" />
<path stroke="#18c60e" d="M4 21h1" />
<path stroke="#6fd96a" d="M5 21h1" />
<path stroke="#26c91d" d="M8 22h1" />
<path stroke="#14ab0d" d="M14 22h1" />
<path stroke="#1dbd15" d="M11 23h1" />
<path stroke="#0a5605" d="M3 24h1M6 25h1M9 26h1" />
<path stroke="#15ba0d" d="M11 24h1M11 25h1M11 26h1" />
<path stroke="rgba(0,0,0,0.3215686274509804)" d="M0 25h1" />
<path stroke="#13a30e" d="M15 25h1M12 26h1" />
<path stroke="#0a5808" d="M16 25h1M13 26h1" />
<path stroke="rgba(0,0,0,0.32941176470588235)" d="M3 26h1M6 27h1M9 28h1" />
<path stroke="rgba(0,0,0,0.4549019607843137)" d="M16 27h1M13 28h1" />
</svg>
</a>

</svg>