<svg xmlns="http://www.w3.org/2000/svg" viewBox="0 -0.5 35 5" shape-rendering="crispEdges">
<metadata>Made with Pixels to Svg https://codepen.io/shshaw/pen/XbxvNj</metadata>
<path d="M0 0h4M5 0h4M10 0h2M14 0h1M16 0h4M21 0h3M26 0h4M31 0h4M0 1h2M5 1h2M8 1h1M10 1h3M14 1h1M17 1h2M21 1h2M24 1h1M26 1h2M32 1h2M0 2h2M5 2h2M8 2h1M10 2h2M13 2h2M17 2h2M21 2h2M24 2h1M26 2h2M32 2h2M0 3h2M5 3h2M8 3h1M10 3h2M14 3h1M17 3h2M21 3h4M26 3h2M32 3h2M0 4h4M5 4h4M10 4h2M14 4h1M17 4h2M21 4h2M24 4h1M26 4h4M32 4h2" />
</svg>