<svg xmlns="http://www.w3.org/2000/svg" viewBox="0 -0.5 62 12" shape-rendering="crispEdges">
<metadata>Made with Pixels to Svg https://codepen.io/shshaw/pen/XbxvNj</metadata>
<path d="M0 0h2M3 0h1M5 0h3M10 0h3M15 0h3M20 0h4M25 0h4M30 0h3M38 0h4M43 0h4M48 0h4M53 0h4M59 0h3M0 1h2M3 1h1M5 1h2M8 1h1M10 1h2M13 1h1M15 1h2M18 1h1M21 1h2M25 1h2M30 1h2M33 1h1M40 1h2M43 1h2M46 1h1M50 1h2M53 1h2M56 1h1M59 1h3M0 2h2M3 2h1M5 2h2M8 2h1M10 2h2M13 2h1M15 2h2M18 2h1M21 2h2M25 2h4M30 2h2M33 2h1M38 2h4M43 2h2M46 2h1M48 2h4M53 2h2M56 2h1M59 2h3M0 3h2M3 3h1M5 3h3M10 3h2M13 3h1M15 3h4M21 3h2M25 3h2M30 3h2M33 3h1M38 3h2M43 3h2M46 3h1M48 3h2M53 3h2M56 3h1M59 3h3M0 4h4M5 4h2M10 4h3M15 4h2M18 4h1M21 4h2M25 4h4M30 4h3M38 4h4M43 4h4M48 4h4M53 4h4M59 4h3M59 5h3M59 6h3M6 7h2M11 7h1M13 7h3M18 7h3M23 7h4M30 7h2M35 7h1M37 7h2M40 7h4M45 7h2M48 7h1M52 7h2M55 7h2M59 7h3M6 8h3M10 8h2M13 8h2M16 8h1M18 8h2M21 8h1M23 8h2M30 8h2M35 8h1M37 8h2M41 8h2M45 8h4M52 8h5M59 8h3M6 9h2M9 9h1M11 9h1M13 9h2M16 9h1M18 9h2M21 9h1M23 9h4M30 9h2M33 9h1M35 9h1M37 9h2M41 9h2M45 9h2M48 9h1M52 9h5M59 9h3M6 10h2M11 10h1M13 10h4M18 10h2M21 10h1M23 10h2M30 10h6M37 10h2M41 10h2M45 10h2M48 10h1M53 10h3M59 10h3M6 11h2M11 11h1M13 11h2M16 11h1M18 11h3M23 11h4M31 11h2M34 11h1M37 11h2M41 11h2M45 11h2M48 11h1M54 11h1M59 11h3" />
</svg>