<svg xmlns="http://www.w3.org/2000/svg" viewBox="0 -0.5 33 11" shape-rendering="crispEdges">
<metadata>Made with Pixels to Svg https://codepen.io/shshaw/pen/XbxvNj</metadata>

<path d="M0 0h4M5 0h3M10 0h2M13 0h4M22 0h3M27 0h2M30 0h1M0 1h2M5 1h2M8 1h1M10 1h2M13 1h2M22 1h2M25 1h1M27 1h2M30 1h1M0 2h4M5 2h3M10 2h2M13 2h2M22 2h4M27 2h3M0 3h2M5 3h2M8 3h1M10 3h2M13 3h2M22 3h2M25 3h1M27 3h2M30 3h1M0 4h4M5 4h2M8 4h1M10 4h2M13 4h4M22 4h3M27 4h2M30 4h1M32 4h1M0 6h2M5 6h4M10 6h2M13 6h1M15 6h2M19 6h1M22 6h3M0 7h2M5 7h2M10 7h2M13 7h1M15 7h3M19 7h1M21 7h2M0 8h2M5 8h4M10 8h2M13 8h1M15 8h2M18 8h2M21 8h2M24 8h1M0 9h2M5 9h2M10 9h2M13 9h1M15 9h2M19 9h1M21 9h2M24 9h1M0 10h4M5 10h4M10 10h4M15 10h2M19 10h1M21 10h4"></path>
</svg>