<svg xmlns="http://www.w3.org/2000/svg" viewBox="0 -0.5 16 17" shape-rendering="crispEdges">
<metadata>Made with Pixels to Svg https://codepen.io/shshaw/pen/XbxvNj</metadata>
<path stroke="#ffffff" d="M3 0h3M3 1h1M5 1h9M3 2h2M13 2h2M2 3h2M14 3h2M2 4h1M15 4h1M2 5h1M15 5h1M2 6h1M8 6h5M15 6h1M1 7h2M6 7h8M15 7h1M1 8h1M5 8h3M9 8h4M14 8h2M1 9h1M3 9h1M5 9h3M9 9h2M12 9h1M14 9h2M1 10h1M3 10h8M12 10h4M1 11h2M4 11h10M15 11h1M2 12h2M5 12h6M12 12h2M15 12h1M3 13h2M6 13h7M14 13h2M4 14h2M13 14h2M5 15h9" />
<path stroke="rgba(83,83,83,0.8431372549019608)" d="M2 1h1M2 2h1M1 3h1M1 4h1M1 5h1M1 6h1M0 7h1M0 8h1M0 9h1M0 10h1M0 11h1M1 12h1M2 13h1M3 14h1M4 15h1M5 16h8" />
<path stroke="#000000" d="M4 1h1M5 2h8M4 3h10M3 4h12M3 5h12M3 6h5M13 6h2M3 7h3M14 7h1M2 8h3M8 8h1M13 8h1M2 9h1M4 9h1M8 9h1M11 9h1M13 9h1M2 10h1M11 10h1M3 11h1M14 11h1M4 12h1M11 12h1M14 12h1M5 13h1M13 13h1M6 14h7"/>

</svg>