<svg xmlns="http://www.w3.org/2000/svg" viewBox="0 -0.5 32 20" shape-rendering="crispEdges">
<metadata>Made with Pixels to Svg https://codepen.io/shshaw/pen/XbxvNj</metadata>
<path stroke="#ffffff" d="M1 0h31M1 1h1M31 1h1M1 2h2M4 2h14M22 2h2M27 2h2M30 2h2M2 3h2M5 3h9M18 3h3M24 3h4M29 3h2M3 4h2M6 4h4M14 4h4M21 4h6M28 4h2M4 5h2M10 5h3M18 5h8M27 5h2M5 6h1M7 6h3M15 6h10M26 6h2M5 7h1M7 7h1M12 7h12M25 7h2M5 8h1M7 8h1M10 8h13M24 8h2M5 9h1M7 9h1M11 9h11M23 9h2M5 10h1M7 10h1M11 10h10M22 10h2M5 11h1M7 11h1M12 11h8M21 11h2M5 12h1M7 12h1M10 12h1M12 12h7M20 12h2M5 13h1M8 13h4M13 13h5M19 13h2M5 14h4M11 14h1M13 14h4M18 14h2M11 15h2M14 15h2M17 15h2M12 16h1M14 16h1M16 16h2M12 17h2M15 17h2M13 18h3" />
<path stroke="#6e6e6e" d="M0 1h1M0 2h1M0 3h2M1 4h2M2 5h2M13 5h2M3 6h2M10 6h2M4 7h1M8 7h1M4 8h1M8 8h1M4 9h1M8 9h2M4 10h1M8 10h2M4 11h1M8 11h2M4 12h1M4 13h1M4 14h1M9 14h2M4 15h7M10 16h2M11 17h1M11 18h2M12 19h3" />
<path stroke="#000000" d="M2 1h29M3 2h1M18 2h4M24 2h3M29 2h1M4 3h1M14 3h4M21 3h3M28 3h1M5 4h1M10 4h4M18 4h3M27 4h1M6 5h4M15 5h3M26 5h1M6 6h1M12 6h3M25 6h1M6 7h1M9 7h3M24 7h1M6 8h1M9 8h1M23 8h1M6 9h1M10 9h1M22 9h1M6 10h1M10 10h1M21 10h1M6 11h1M10 11h2M20 11h1M6 12h1M8 12h2M11 12h1M19 12h1M6 13h2M12 13h1M18 13h1M12 14h1M17 14h1M13 15h1M16 15h1M13 16h1M15 16h1M14 17h1" />
</svg>