<svg xmlns="http://www.w3.org/2000/svg" viewBox="0 -0.5 16 15" shape-rendering="crispEdges">
<metadata>Made with Pixels to Svg https://codepen.io/shshaw/pen/XbxvNj</metadata>
<path stroke="#000000" d="M1 0h2M8 0h3M0 1h1M3 1h1M6 1h2M11 1h1M0 2h1M4 2h2M8 2h1M12 2h1M0 3h1M6 3h1M12 3h1M1 4h1M13 4h1M2 5h1M13 5h1M2 6h2M13 6h1M2 7h1M13 7h2M2 8h1M12 8h1M15 8h1M3 9h1M15 9h1M4 10h1M10 10h1M14 10h1M5 11h5M13 11h1M8 12h1M12 12h1M8 13h1M11 13h1M9 14h2" />
<path stroke="#ffffff" d="M1 1h2M9 1h2M1 2h3M7 2h1M10 2h2M2 3h4M8 3h4M3 4h7M11 4h2M4 5h4M9 5h2M12 5h1M5 6h4M10 6h3M5 7h8M5 8h7M13 8h2M5 9h10M11 10h3M11 11h1" />
<path stroke="#f0f0f0" d="M8 1h1M6 2h1M9 2h1M1 3h1M7 3h1M2 4h1M3 5h1M4 6h1M4 8h1M4 9h1M5 10h5M10 11h1M12 11h1M10 12h2" />
<path stroke="#5a5a5a" d="M10 4h1M8 5h1M11 5h1M9 6h1" />
<path stroke="#cbcbcb" d="M3 7h2M3 8h1M9 12h1M9 13h2" />
</svg>